<?xml version="1.0" standalone="no"?>
<!DOCTYPE svg PUBLIC "-//W3C//DTD SVG 1.1//EN" "http://www.w3.org/Graphics/SVG/1.1/DTD/svg11.dtd" >
<svg>
<metadata>
Created by FontForge 20090622 at Wed Aug 16 08:24:50 2017
 By deploy user
Copyright &#194;&#169; 2012 by Mojtaba Kia. All rights reserved.
</metadata>
<defs>
<font id="ANegaar-Bold" horiz-adv-x="0" >
  <font-face 
    font-family="A Negaar"
    font-weight="700"
    font-stretch="normal"
    units-per-em="2048"
    panose-1="0 0 7 0 0 0 0 0 0 0"
    ascent="1638"
    descent="-410"
    bbox="-192 -1025 2446.12 2181"
    underline-thickness="60"
    underline-position="-840"
    unicode-range="U+0020-U+FEFC"
  />
<missing-glyph horiz-adv-x="908" 
d="M334 621q0 -352 128 -352q127 0 127 352t-127 352q-128 0 -128 -352zM873 621q0 -429 -142.5 -525t-268.5 -96q-97 0 -254.5 96t-157.5 525t152.5 525t259.5 96q116 0 263.5 -96t147.5 -525z" />
    <glyph glyph-name="uFC60" unicode="&#x651;&#x64e;" arabic-form="isolated" 
d="M526 1682q7 -35 7 -66q0 -77 -32 -130q-38 -63 -111 -63q-70 0 -94 68q-38 -105 -139 -105q-96 0 -96 126q0 56 23 104q13 27 35 27q33 0 27 -46q-10 -88 40 -88q73 0 91 129q6 43 36 43q28 0 29 -40q4 -100 63 -100q68 0 50 127q-1 7 -1 15q0 45 32 45q31 0 40 -46z
M516 1865l-384 -120q-6 -2 -15 -2q-44 0 -44 47q0 36 41 49l371 118q10 3 21 3q51 0 51 -48q0 -34 -41 -47z" />
    <glyph glyph-name="uFC61" unicode="&#x651;&#x64f;" arabic-form="isolated" 
d="M543 1591q7 -36 7 -66q0 -78 -32 -130q-38 -63 -111 -63q-70 0 -94 68q-38 -105 -139 -105q-96 0 -96 126q0 55 23 104q13 27 35 27q32 0 27 -46q-11 -88 40 -88q73 0 91 129q6 43 36 43q28 0 29 -40q4 -100 63 -100q68 0 50 127q-1 7 -1 15q0 45 32 45q31 0 40 -46z
M558 2009q0 -106 -101 -183q36 -25 36 -53q0 -34 -40 -34q-31 0 -67 28q-220 -116 -308 -116q-52 0 -52 43q0 34 41 45q149 39 240 97q-44 46 -44 103q0 69 51.5 126t120.5 57q49 0 86 -32.5t37 -80.5zM470 1975q0 57 -55 57q-26 0 -48.5 -26.5t-22.5 -53.5q0 -45 47 -70
q27 8 53 37t26 56z" />
    <glyph glyph-name="uE818" unicode="&#x651;&#x64b;" 
d="M509 1696q7 -35 7 -66q0 -78 -32 -130q-38 -63 -111 -63q-70 0 -94 68q-38 -105 -139 -105q-96 0 -96 126q0 55 23 104q13 27 35 27q33 0 27 -46q-10 -88 40 -88q73 0 91 129q6 43 36 43q28 0 29 -40q4 -100 63 -100q68 0 50 127q-1 7 -1 15q0 45 32 45q31 0 40 -46z
M483 2086l-385 -120q-7 -2 -15 -2q-44 0 -44 47q0 35 42 49l371 118q9 3 21 3q50 0 50 -48q0 -35 -40 -47zM492 1884l-384 -120q-7 -2 -15 -2q-44 0 -44 47q0 36 41 49l371 118q9 3 21 3q51 0 51 -48q0 -35 -41 -47z" />
    <glyph glyph-name="uFC5E" unicode="&#x651;&#x64c;" arabic-form="isolated" 
d="M515 1610q7 -36 7 -66q0 -78 -32 -130q-39 -63 -111 -63q-70 0 -94 68q-38 -105 -139 -105q-96 0 -96 126q0 55 23 104q12 27 35 27q32 0 27 -46q-11 -88 40 -88q73 0 91 129q6 43 36 43q27 0 29 -40q3 -100 63 -100q67 0 50 127q-1 7 -1 15q0 45 32 45q30 0 40 -46z
M538 2030q0 -106 -101 -183q36 -25 36 -53q0 -34 -40 -34q-31 0 -67 28q-220 -116 -308 -116q-52 0 -52 43q0 34 41 45q68 18 68 79q0 28 -39 28q-28 0 -53 -15q-15 -9 -26 -9q-24 0 -24 25q0 20 19 39q41 41 103 41q92 0 92 -84q0 -30 -17 -66q58 22 117 59q-44 46 -44 103
q0 69 51.5 126t120.5 57q49 0 86 -32.5t37 -80.5zM450 1996q0 57 -55 57q-27 0 -49 -26.5t-22 -53.5q0 -45 47 -70q27 8 53 37t26 56z" />
    <glyph glyph-name="uFC62" unicode="&#x651;&#x650;" arabic-form="isolated" 
d="M518 1965q7 -35 7 -66q0 -77 -32 -130q-38 -63 -111 -63q-70 0 -94 68q-38 -105 -139 -105q-96 0 -96 126q0 56 23 104q12 27 35 27q32 0 27 -46q-11 -88 40 -88q73 0 91 129q6 43 36 43q27 0 29 -40q3 -100 63 -100q67 0 50 127q-1 7 -1 15q0 45 32 45q31 0 40 -46z
M502 1553l-384 -120q-6 -2 -15 -2q-44 0 -44 47q0 36 41 49l371 118q10 3 21 3q51 0 51 -48q0 -34 -41 -47z" />
    <glyph glyph-name="uFC5F" unicode="&#x651;&#x64d;" arabic-form="isolated" 
d="M526 2106q7 -35 7 -66q0 -77 -32 -130q-38 -63 -111 -63q-70 0 -94 68q-38 -105 -139 -105q-96 0 -96 126q0 56 23 104q13 27 35 27q33 0 27 -46q-10 -88 40 -88q73 0 91 129q6 43 36 43q28 0 29 -40q4 -100 63 -100q68 0 50 127q-1 7 -1 15q0 45 32 45q31 0 40 -46z
M491 1666l-385 -120q-6 -2 -15 -2q-44 0 -44 47q0 36 42 49l371 118q10 3 21 3q50 0 50 -48q0 -34 -40 -47zM500 1473l-384 -119q-6 -2 -15 -2q-44 0 -44 46q0 36 41 49l372 119q9 3 20 3q51 0 51 -48q0 -35 -41 -48z" />
    <glyph glyph-name="uFEF5" unicode="&#xfedf;&#xfe82;" horiz-adv-x="1082" arabic-form="isolated" 
d="M550 269q183 5 188 217l-1 666q1 211 146 213h2q143 0 147 -224l-1 -672q0 -263 -132 -382q-95 -87 -292 -87h-329q-153 8 -153 147v2q1 120 171 120h254zM423 1560q49 0 77.5 19.5t45.5 19.5q48 0 52 -55v-10q-7 -53 -66.5 -81.5t-99.5 -28.5q-55 2 -103 31q-14 8 -24 8
q-38 0 -82 -39q-23 -14 -41 -14h-1q-48 6 -49 59v3q0 67 82 104q47 21 75 21q24 0 51 -11q56 -26 83 -26zM214 1142q4 224 147 224h2q145 -2 146 -213v-590q-1 -211 -146 -213h-2q-143 0 -147 224v568z" />
    <glyph glyph-name="uFEF6" unicode="&#xfee0;&#xfe82;" horiz-adv-x="1128" arabic-form="final" 
d="M278 0q-153 8 -153 147v2q1 121 174 121v-1h13l73 1h73l-73 -1h165q183 5 188 217l-1 666q1 211 146 213h2q143 0 147 -224l-2 -671v-43q4 -158 89 -158h31v-269h-36q-147 0 -184 119q-15 -17 -31 -32q-94 -87 -263 -87h-358zM212 1142q4 224 147 224h2q145 -2 146 -213
v-590q-1 -211 -146 -213h-2q-143 0 -147 224v568zM419 1560q49 0 77.5 19.5t45.5 19.5q48 0 52 -55v-10q-7 -53 -66.5 -81.5t-99.5 -28.5q-55 2 -103 31q-14 8 -24 8q-38 0 -82 -39q-23 -14 -41 -14h-1q-48 6 -49 59v3q0 67 82 104q47 21 75 21q24 0 51 -11q56 -26 83 -26z
" />
    <glyph glyph-name="uFEF7" unicode="&#xfedf;&#xfe84;" horiz-adv-x="1082" arabic-form="isolated" 
d="M550 269q183 5 188 217l-1 666q1 211 146 213h2q143 0 147 -224l-1 -672q0 -263 -132 -382q-95 -87 -292 -87h-329q-153 8 -153 147v2q1 120 171 120h254zM715 1403q0 -37 -44 -37h-142q-57 0 -57 37q0 32 53 32q-16 17 -19 44v13q0 92 99 92q98 0 98 -66v-21
q0 -32 -36 -32h-4q-31 0 -31 31q0 13 -22 13t-22 -35q0 -34 31 -34h52q44 0 44 -37zM214 1142q4 224 147 224h2q145 -2 146 -213v-590q-1 -211 -146 -213h-2q-143 0 -147 224v568z" />
    <glyph glyph-name="uFEF8" unicode="&#xfee0;&#xfe84;" horiz-adv-x="1128" arabic-form="final" 
d="M278 0q-153 8 -153 147v2q1 121 174 121v-1h13l73 1h73l-73 -1h165q183 5 188 217l-1 666q1 211 146 213h2q143 0 147 -224l-2 -671v-43q4 -158 89 -158h31v-269h-36q-147 0 -184 119q-15 -17 -31 -32q-94 -87 -263 -87h-358zM713 1403q0 -37 -44 -37h-142q-57 0 -57 37
q0 32 53 32q-16 17 -19 44v13q0 92 99 92q98 0 98 -66v-21q0 -32 -36 -32h-4q-31 0 -31 31q0 13 -22 13t-22 -35q0 -34 31 -34h52q44 0 44 -37zM212 1142q4 224 147 224h2q145 -2 146 -213v-590q-1 -211 -146 -213h-2q-143 0 -147 224v568z" />
    <glyph glyph-name="uFEF9" unicode="&#xfedf;&#xfe88;" horiz-adv-x="1082" arabic-form="isolated" 
d="M550 269q183 5 188 217l-1 666q1 211 146 213h2q143 0 147 -224l-1 -672q0 -263 -132 -382q-95 -87 -292 -87h-329q-153 8 -153 147v2q1 120 171 120h254zM494 -335q0 -56 -67 -56h-214q-87 0 -87 56q0 48 80 48q-24 26 -28 67v19q0 140 150 140q148 0 148 -100v-31
q0 -49 -55 -49h-5q-48 0 -48 46q0 20 -33 20q-34 0 -34 -52t48 -52h78q67 0 67 -56zM214 1142q4 224 147 224h2q145 -2 146 -213v-590q-1 -211 -146 -213h-2q-143 0 -147 224v568z" />
    <glyph glyph-name="uFEFA" unicode="&#xfee0;&#xfe88;" horiz-adv-x="1129" arabic-form="final" 
d="M279 0q-153 8 -153 147v2q1 121 174 121v-1h13l73 1h73l-73 -1h165q183 5 188 217l-1 666q1 211 146 213h2q143 0 147 -224l-2 -671v-43q4 -158 89 -158h31v-269h-36q-147 0 -184 119q-15 -17 -31 -32q-94 -87 -263 -87h-358zM493 -335q0 -56 -67 -56h-214q-87 0 -87 56
q0 48 80 48q-24 26 -28 67v19q0 140 150 140q148 0 148 -100v-31q0 -49 -55 -49h-5q-48 0 -48 46q0 20 -33 20q-34 0 -34 -52t48 -52h78q67 0 67 -56zM213 1142q4 224 147 224h2q145 -2 146 -213v-590q-1 -211 -146 -213h-2q-143 0 -147 224v568z" />
    <glyph glyph-name="uFEFB" unicode="&#xfedf;&#xfe8e;" horiz-adv-x="1082" arabic-form="isolated" 
d="M200 1142q4 224 147 224h2q145 -2 146 -213v-590q-1 -211 -146 -213h-2q-143 0 -147 224v568zM550 269q183 5 188 217l-1 666q1 211 146 213h2q143 0 147 -224l-1 -672q0 -263 -132 -382q-95 -87 -292 -87h-329q-153 8 -153 147v2q1 120 171 120h254z" />
    <glyph glyph-name="uFEFC" unicode="&#xfee0;&#xfe8e;" horiz-adv-x="1128" arabic-form="final" 
d="M278 0q-153 8 -153 147v2q1 121 174 121v-1h13l73 1h73l-73 -1h165q183 5 188 217l-1 666q1 211 146 213h2q143 0 147 -224l-2 -671v-43q4 -158 89 -158h31v-269h-36q-147 0 -184 119q-15 -17 -31 -32q-94 -87 -263 -87h-358zM205 1142q4 224 147 224h2q145 -2 146 -213
v-590q-1 -211 -146 -213h-2q-143 0 -147 224v568z" />
    <glyph glyph-name="uFDF2" unicode="&#xfedf;&#xfee0;&#xfeea;" horiz-adv-x="2188" arabic-form="isolated" 
d="M1286 1319q4 -57 28 -57q27 0 27 65v15q-1 80 43 82h3q40 0 40 -74v-14q0 -74 28 -74q29 0 29 79v2q0 79 38.5 80.5t38.5 -74.5q1 -19 1 -37q0 -48 -10 -77q-23 -47 -84 -47q-54 -1 -85 29q-33 -36 -86 -31q-54 2 -75 31q-27 48 -27 102v7q0 99 47 101h2q43 0 43 -68
q0 -6 -1 -13v-27zM1043 0q-401 20 -423 319v103q0 122 -108 122q-107 0 -108 -122v-2q0 -93 64 -114q130 0 130 -129q1 -3 1 -5q0 -117 -108 -146q-31 -5 -60 -5q-129 0 -220 94q-86 105 -86 297q0 55 7 116q33 278 386 278h3q57 -4 105 -13v13q4 204 147 204h2
q125 -2 126 -193v-366q22 -182 138 -182h8q186 0 188 147l-1 471q1 211 146 213h2q143 0 147 -224l-1 -407v-43q3 -157 148 -157h41q123 5 128 217v514q0 200 144 200h11q138 0 138 -209v-522q0 -263 -132 -382q-95 -87 -285 -87h-70q-207 0 -269 157q-70 -157 -315 -157
h-24zM1433 1523q-2 -61 -47 -63h-2q-43 0 -43 58v73q2 51 47 53h2q43 0 43 -58v-63z" />
    <glyph glyph-name="u0622" unicode="&#x622;" horiz-adv-x="470" arabic-form="isolated" 
d="M125 976q4 224 147 224h2q145 -2 146 -213v-774q-1 -211 -146 -213h-2q-143 0 -147 224v752zM366 1472q77 0 121.5 30.5t70.5 30.5q75 0 82 -86v-15q-11 -83 -104 -127.5t-156 -44.5q-85 2 -161 48q-21 12 -37 12q-59 0 -128 -60q-36 -23 -64 -23h-2q-74 10 -76 93v4
q0 106 128 163q74 33 118 33q37 0 79 -18q88 -40 129 -40z" />
    <glyph glyph-name="Hcircumflex" unicode="&#x622;" horiz-adv-x="637" arabic-form="final" 
d="M420 987l-1 -501q5 -212 188 -217h52v-269h-92q-17 -1 -34 -1q-179 0 -275 88q-132 119 -132 382l-1 507q4 224 147 224h2q145 -2 146 -213zM371 1472q77 0 121.5 30.5t70.5 30.5q75 0 82 -86v-15q-11 -83 -104 -127.5t-156 -44.5q-85 2 -161 48q-21 12 -37 12
q-59 0 -128 -60q-36 -23 -64 -23h-2q-74 10 -76 93v4q0 106 128 163q74 33 118 33q37 0 79 -18q88 -40 129 -40z" />
    <glyph glyph-name="u0623" unicode="&#x623;" horiz-adv-x="543" arabic-form="isolated" 
d="M169 976q4 224 147 224h2q145 -2 146 -213v-774q-1 -211 -146 -213h-2q-143 0 -147 224v752zM493 1318q0 -56 -67 -56h-214q-87 0 -87 56q0 48 80 48q-24 25 -28 67v19q0 140 150 140q148 0 148 -100v-31q0 -49 -55 -49h-5q-48 0 -48 46q0 20 -33 20q-34 0 -34 -52
t48 -52h78q67 0 67 -56z" />
    <glyph glyph-name="uFE84" unicode="&#x623;" horiz-adv-x="678" arabic-form="final" 
d="M464 987l-1 -501q5 -212 188 -217h52v-269h-92q-17 -1 -34 -1q-179 0 -275 88q-132 119 -132 382l-1 507q4 224 147 224h2q145 -2 146 -213zM493 1318q0 -56 -67 -56h-214q-87 0 -87 56q0 48 80 48q-24 25 -28 67v19q0 140 150 140q148 0 148 -100v-31q0 -49 -55 -49h-5
q-48 0 -48 46q0 20 -33 20q-34 0 -34 -52t48 -52h78q67 0 67 -56z" />
    <glyph glyph-name="u0624" unicode="&#x624;" horiz-adv-x="941" arabic-form="isolated" 
d="M862 55q-46 -212 -152 -331.5t-269 -173.5q-43 -9 -79 -9q-83 0 -133 47q-54 49 -54 107q0 21 8 43q27 63 124 83q170 28 221 89q110 109 120 283q1 28 1 55q0 134 -40 217q-23 57 -97 57q-107 0 -108 -122v-2q0 -93 64 -114q128 -8 130 -129q1 -3 1 -5q0 -117 -108 -146
q-31 -5 -60 -5q-129 0 -220 94q-86 105 -86 297q0 55 7 116q33 278 386 278h3q262 -16 333 -163q24 -41 29 -111v-6q8 -64 8 -147q-3 -194 -29 -302zM536 926q0 -56 -67 -56h-214q-87 0 -87 56q0 48 80 48q-24 25 -28 67v19q0 140 150 140q148 0 148 -100v-31q0 -49 -55 -49
h-5q-48 0 -48 46q0 20 -33 20q-34 0 -34 -52t48 -52h78q67 0 67 -56z" />
    <glyph glyph-name="uFE86" unicode="&#x624;" horiz-adv-x="1020" arabic-form="final" 
d="M863 60q0 -2 -1 -5q-46 -212 -152 -331.5t-269 -173.5q-43 -9 -79 -9q-83 0 -133 47q-54 49 -54 107q0 21 8 43q27 63 124 83q170 28 221 89q110 109 120 283q1 28 1 55q0 134 -40 217q-23 57 -97 57q-107 0 -108 -122v-2q0 -93 64 -114q128 -8 130 -129q1 -3 1 -5
q0 -117 -108 -146q-31 -5 -60 -5q-129 0 -220 94q-86 105 -86 297q0 55 7 116q33 278 386 278h3q262 -16 333 -163q38 -96 38 -214q0 -21 -1 -43q14 -95 116 -95h35v-269h-24q-70 3 -155 60zM536 926q0 -56 -67 -56h-214q-87 0 -87 56q0 48 80 48q-24 25 -28 67v19
q0 140 150 140q148 0 148 -100v-31q0 -49 -55 -49h-5q-48 0 -48 46q0 20 -33 20q-34 0 -34 -52t48 -52h78q67 0 67 -56z" />
    <glyph glyph-name="u0625" unicode="&#x625;" horiz-adv-x="543" arabic-form="isolated" 
d="M197 1142q4 224 147 224h2q145 -2 146 -213v-940q-1 -211 -146 -213h-2q-143 0 -147 224v918zM493 -353q0 -56 -67 -56h-214q-87 0 -87 56q0 48 80 48q-24 25 -28 67v19q0 140 150 140q148 0 148 -100v-31q0 -49 -55 -49h-5q-48 0 -48 46q0 20 -33 20q-34 0 -34 -52
t48 -52h78q67 0 67 -56z" />
    <glyph glyph-name="uFE88" unicode="&#x625;" horiz-adv-x="609" arabic-form="final" 
d="M395 1153l-1 -667q5 -212 188 -217h52v-269h-92q-17 -1 -34 -1q-179 0 -275 88q-132 119 -132 382l-1 673q4 224 147 224h2q145 -2 146 -213zM396 -274q0 -56 -67 -56h-214q-87 0 -87 56q0 48 80 48q-24 25 -28 67v19q0 140 150 140q148 0 148 -100v-31q0 -49 -55 -49h-5
q-48 0 -48 46q0 20 -33 20q-34 0 -34 -52t48 -52h78q67 0 67 -56z" />
    <glyph glyph-name="u0626" unicode="&#x626;" horiz-adv-x="1472" arabic-form="isolated" 
d="M715 -13h98q23 0 57 2q115 10 186 59q61 42 80 113h-275q-232 1 -232 216q0 217 120 384q114 157 371 157h50q169 0 169 -132q0 -143 -168 -144l-42 1q-184 0 -242 -217h260q275 0 275 -197q0 -179 -66 -290q-35 -61 -91 -101q-97 -70 -199 -91q-55 -14 -126 -20h-155
q-131 0 -227 21q-102 21 -210.5 87.5t-157.5 142.5t-61 195q-4 39 -4 74q0 75 17 136l63 190q61 187 173 187q14 0 30 -3q99 -21 99 -120q0 -34 -12 -77l-74 -217q-17 -55 -17 -102q0 -168 215 -238q50 -12 96 -16zM746 876q0 -56 -67 -56h-214q-87 0 -87 56q0 48 80 48
q-24 25 -28 67v19q0 140 150 140q148 0 148 -100v-31q0 -49 -55 -49h-5q-48 0 -48 46q0 20 -33 20q-34 0 -34 -52t48 -52h78q67 0 67 -56z" />
    <glyph glyph-name="uFE8A" unicode="&#x626;" horiz-adv-x="1222" arabic-form="final" 
d="M54 -62q-4 39 -4 74q0 75 17 136l85 253q42 133 135 133q24 0 50 -8q97 -30 97 -122q0 -35 -14 -79l-74 -217q-17 -55 -17 -102q0 -168 215 -238q59 -11 137 -11h61q20 0 83 3l52 12q-220 203 -220 248q-8 0 -12 68q2 72 77 129q68 52 239 52h286v-269h-214
q148 -117 148 -196l4 -40q0 -109 -76 -182.5t-264 -89.5h-135q-131 0 -227 21q-102 21 -210.5 87.5t-157.5 142.5t-61 195zM861 416q0 -56 -67 -56h-214q-87 0 -87 56q0 48 80 48q-24 25 -28 67v19q0 140 150 140q148 0 148 -100v-31q0 -49 -55 -49h-5q-48 0 -48 46
q0 20 -33 20q-34 0 -34 -52t48 -52h78q67 0 67 -56z" />
    <glyph glyph-name="uFE8B" unicode="&#x626;" horiz-adv-x="637" arabic-form="initial" 
d="M-25 269h39q313 0 313 251v112q0 168 143 168q132 0 132 -169v-120q0 -277 -157 -391q-167 -120 -418 -120h-52v269zM423 946q0 -56 -67 -56h-214q-87 0 -87 56q0 48 80 48q-24 25 -28 67v19q0 140 150 140q148 0 148 -100v-31q0 -49 -55 -49h-5q-48 0 -48 46
q0 20 -33 20q-34 0 -34 -52t48 -52h78q67 0 67 -56z" />
    <glyph glyph-name="uFE8C" unicode="&#x626;" horiz-adv-x="754" arabic-form="medial" 
d="M627 557q9 -287 139 -288h13v-269h-13q-169 1 -274 138q-11 -9 -22 -17q-167 -120 -470 -120l-20 1v268h20q352 0 352 251l-1 112q1 168 144 168q132 0 132 -169v-75zM428 946q0 -56 -67 -56h-214q-87 0 -87 56q0 48 80 48q-24 25 -28 67v19q0 140 150 140
q148 0 148 -100v-31q0 -49 -55 -49h-5q-48 0 -48 46q0 20 -33 20q-34 0 -34 -52t48 -52h78q67 0 67 -56z" />
    <glyph glyph-name="u0627" unicode="&#x627;" horiz-adv-x="470" arabic-form="isolated" 
d="M125 1142q4 224 147 224h2q145 -2 146 -213v-940q-1 -211 -146 -213h-2q-143 0 -147 224v918z" />
    <glyph glyph-name="uFE8E" unicode="&#x627;" horiz-adv-x="639" arabic-form="final" 
d="M420 1153l-1 -667q5 -212 188 -217h52v-269h-92q-17 -1 -34 -1q-179 0 -275 88q-132 119 -132 382l-1 673q4 224 147 224h2q145 -2 146 -213z" />
    <glyph glyph-name="u0628" unicode="&#x628;" horiz-adv-x="1668" arabic-form="isolated" 
d="M126 505q7 165 85 260q91 94 220 94q29 0 60 -5q108 -29 108 -146q0 -2 -1 -5q-2 -121 -130 -129q-64 -21 -64 -114q0 -19 3 -31q39 -100 171 -138q76 -22 243 -22h321q201 0 201 251l-1 112q1 168 144 168q132 0 132 -169v-120q0 -277 -157 -391q-177 -120 -343 -120
h-367q-120 0 -223 17q-155 25 -250 89q-42 28 -83 85t-63 161q-7 61 -7 116q0 17 1 37zM915 -100q135 0 135 -128q0 -129 -135 -129q-136 0 -136 129q0 128 136 128z" />
    <glyph glyph-name="uFE90" unicode="&#x628;" horiz-adv-x="1750" arabic-form="final" 
d="M1618 515q17 -246 137 -246v-269q-169 0 -273 136v1q-10 -9 -21 -17q-177 -120 -343 -120h-367q-120 0 -223 17q-155 25 -250 89q-42 28 -83 85t-63 161q-7 61 -7 116q0 17 1 37q7 165 85 260q91 94 220 94q29 0 60 -5q108 -29 108 -146q0 -2 -1 -5q-2 -121 -130 -129
q-64 -21 -64 -114q0 -19 3 -31q39 -100 171 -138q76 -22 243 -22h321q201 0 201 251l-1 112q1 168 144 168q132 0 132 -169v-116zM915 -100q135 0 135 -128q0 -129 -135 -129q-136 0 -136 129q0 128 136 128z" />
    <glyph glyph-name="uFE91" unicode="&#x628;" horiz-adv-x="642" arabic-form="initial" 
d="M249 -100q135 0 135 -128q0 -129 -135 -129q-136 0 -136 129q0 128 136 128zM-20 269h39q313 0 313 251v112q0 168 143 168q132 0 132 -169v-120q0 -277 -157 -391q-167 -120 -418 -120h-52v269z" />
    <glyph glyph-name="uFE92" unicode="&#x628;" horiz-adv-x="759" arabic-form="medial" 
d="M181 -100q135 0 135 -128q0 -129 -135 -129q-136 0 -136 129q0 128 136 128zM627 557q9 -287 139 -288h13v-269h-13q-169 1 -274 138q-11 -9 -22 -17q-167 -120 -470 -120l-20 1v268h20q352 0 352 251l-1 112q1 168 144 168q132 0 132 -169v-75z" />
    <glyph glyph-name="u067E" unicode="&#x67e;" horiz-adv-x="1668" arabic-form="isolated" 
d="M126 505q7 165 85 260q91 94 220 94q29 0 60 -5q108 -29 108 -146q0 -2 -1 -5q-2 -121 -130 -129q-64 -21 -64 -114q0 -19 3 -31q39 -100 171 -138q76 -22 243 -22h321q201 0 201 251l-1 112q1 168 144 168q132 0 132 -169v-120q0 -277 -157 -391q-177 -120 -343 -120
h-367q-120 0 -223 17q-155 25 -250 89q-42 28 -83 85t-63 161q-7 61 -7 116q0 17 1 37zM757 -101q135 0 135 -128q0 -129 -135 -129q-136 0 -136 129q0 128 136 128zM1053 -100q135 0 135 -128q0 -129 -135 -129q-136 0 -136 129q0 128 136 128zM908 -348q135 0 135 -128
q0 -129 -135 -129q-136 0 -136 129q0 128 136 128z" />
    <glyph glyph-name="uFB57" unicode="&#x67e;" horiz-adv-x="1733" arabic-form="final" 
d="M1618 515q17 -246 137 -246v-269q-169 0 -273 136v1q-10 -9 -21 -17q-177 -120 -343 -120h-367q-120 0 -223 17q-155 25 -250 89q-42 28 -83 85t-63 161q-7 61 -7 116q0 17 1 37q7 165 85 260q91 94 220 94q29 0 60 -5q108 -29 108 -146q0 -2 -1 -5q-2 -121 -130 -129
q-64 -21 -64 -114q0 -19 3 -31q39 -100 171 -138q76 -22 243 -22h321q201 0 201 251l-1 112q1 168 144 168q132 0 132 -169v-116zM757 -101q135 0 135 -128q0 -129 -135 -129q-136 0 -136 129q0 128 136 128zM1053 -100q135 0 135 -128q0 -129 -135 -129q-136 0 -136 129
q0 128 136 128zM908 -348q135 0 135 -128q0 -129 -135 -129q-136 0 -136 129q0 128 136 128z" />
    <glyph glyph-name="uFB58" unicode="&#x67e;" horiz-adv-x="718" arabic-form="initial" 
d="M-9 269h89q313 0 313 251v112q0 168 143 168q132 0 132 -169v-120q0 -277 -157 -391q-167 -120 -418 -120h-102v269zM123 -101q135 0 135 -128q0 -129 -135 -129q-136 0 -136 129q0 128 136 128zM419 -100q135 0 135 -128q0 -129 -135 -129q-136 0 -136 129
q0 128 136 128zM274 -348q135 0 135 -128q0 -129 -135 -129q-136 0 -136 129q0 128 136 128z" />
    <glyph glyph-name="uFB59" unicode="&#x67e;" horiz-adv-x="773" arabic-form="medial" 
d="M627 557q9 -287 139 -288h13v-269h-13q-169 1 -274 138q-11 -9 -22 -17q-167 -120 -470 -120l-20 1v268h20q352 0 352 251l-1 112q1 168 144 168q132 0 132 -169v-75zM142 -101q135 0 135 -128q0 -129 -135 -129q-136 0 -136 129q0 128 136 128zM438 -100q135 0 135 -128
q0 -129 -135 -129q-136 0 -136 129q0 128 136 128zM293 -348q135 0 135 -128q0 -129 -135 -129q-136 0 -136 129q0 128 136 128z" />
    <glyph glyph-name="u062A" unicode="&#x62a;" horiz-adv-x="1668" arabic-form="isolated" 
d="M126 505q7 165 85 260q91 94 220 94q29 0 60 -5q108 -29 108 -146q0 -2 -1 -5q-2 -121 -130 -129q-64 -21 -64 -114q0 -19 3 -31q39 -100 171 -138q76 -22 243 -22h321q201 0 201 251l-1 112q1 168 144 168q132 0 132 -169v-120q0 -277 -157 -391q-177 -120 -343 -120
h-367q-120 0 -223 17q-155 25 -250 89q-42 28 -83 85t-63 161q-7 61 -7 116q0 17 1 37zM678 913q0 129 136 129q135 0 135 -129q0 -128 -135 -128q-136 0 -136 128zM974 912q0 129 136 129q135 0 135 -129q0 -128 -135 -128q-136 0 -136 128z" />
    <glyph glyph-name="uFE96" unicode="&#x62a;" horiz-adv-x="1733" arabic-form="final" 
d="M1618 515q17 -246 137 -246v-269q-169 0 -273 136v1q-10 -9 -21 -17q-177 -120 -343 -120h-367q-120 0 -223 17q-155 25 -250 89q-42 28 -83 85t-63 161q-7 61 -7 116q0 17 1 37q7 165 85 260q91 94 220 94q29 0 60 -5q108 -29 108 -146q0 -2 -1 -5q-2 -121 -130 -129
q-64 -21 -64 -114q0 -19 3 -31q39 -100 171 -138q76 -22 243 -22h321q201 0 201 251l-1 112q1 168 144 168q132 0 132 -169v-116zM678 913q0 129 136 129q135 0 135 -129q0 -128 -135 -128q-136 0 -136 128zM974 912q0 129 136 129q135 0 135 -129q0 -128 -135 -128
q-136 0 -136 128z" />
    <glyph glyph-name="uFE97" unicode="&#x62a;" horiz-adv-x="657" arabic-form="initial" 
d="M-74 1019q0 129 136 129q135 0 135 -129q0 -128 -135 -128q-136 0 -136 128zM222 1018q0 129 136 129q135 0 135 -129q0 -128 -135 -128q-136 0 -136 128zM-20 269h39q313 0 313 251v112q0 168 143 168q132 0 132 -169v-120q0 -277 -157 -391q-167 -120 -418 -120h-52
v269z" />
    <glyph glyph-name="uFE98" unicode="&#x62a;" horiz-adv-x="773" arabic-form="medial" 
d="M627 557q9 -287 139 -288h13v-269h-13q-169 1 -274 138q-11 -9 -22 -17q-167 -120 -470 -120l-20 1v268h20q352 0 352 251l-1 112q1 168 144 168q132 0 132 -169v-75zM-74 1019q0 129 136 129q135 0 135 -129q0 -128 -135 -128q-136 0 -136 128zM222 1018q0 129 136 129
q135 0 135 -129q0 -128 -135 -128q-136 0 -136 128z" />
    <glyph glyph-name="u062B" unicode="&#x62b;" horiz-adv-x="1668" arabic-form="isolated" 
d="M126 505q7 165 85 260q91 94 220 94q29 0 60 -5q108 -29 108 -146q0 -2 -1 -5q-2 -121 -130 -129q-64 -21 -64 -114q0 -19 3 -31q39 -100 171 -138q76 -22 243 -22h321q201 0 201 251l-1 112q1 168 144 168q132 0 132 -169v-120q0 -277 -157 -391q-177 -120 -343 -120
h-367q-120 0 -223 17q-155 25 -250 89q-42 28 -83 85t-63 161q-7 61 -7 116q0 17 1 37zM688 913q0 129 136 129q135 0 135 -129q0 -128 -135 -128q-136 0 -136 128zM984 912q0 129 136 129q135 0 135 -129q0 -128 -135 -128q-136 0 -136 128zM839 1160q0 129 136 129
q135 0 135 -129q0 -128 -135 -128q-136 0 -136 128z" />
    <glyph glyph-name="uFE9A" unicode="&#x62b;" horiz-adv-x="1735" arabic-form="final" 
d="M1618 515q17 -246 137 -246v-269q-169 0 -273 136v1q-10 -9 -21 -17q-177 -120 -343 -120h-367q-120 0 -223 17q-155 25 -250 89q-42 28 -83 85t-63 161q-7 61 -7 116q0 17 1 37q7 165 85 260q91 94 220 94q29 0 60 -5q108 -29 108 -146q0 -2 -1 -5q-2 -121 -130 -129
q-64 -21 -64 -114q0 -19 3 -31q39 -100 171 -138q76 -22 243 -22h321q201 0 201 251l-1 112q1 168 144 168q132 0 132 -169v-116zM688 913q0 129 136 129q135 0 135 -129q0 -128 -135 -128q-136 0 -136 128zM984 912q0 129 136 129q135 0 135 -129q0 -128 -135 -128
q-136 0 -136 128zM839 1160q0 129 136 129q135 0 135 -129q0 -128 -135 -128q-136 0 -136 128z" />
    <glyph glyph-name="uFE9B" unicode="&#x62b;" horiz-adv-x="657" arabic-form="initial" 
d="M-20 269h39q313 0 313 251v112q0 168 143 168q132 0 132 -169v-120q0 -277 -157 -391q-167 -120 -418 -120h-52v269zM-74 1019q0 129 136 129q135 0 135 -129q0 -128 -135 -128q-136 0 -136 128zM222 1018q0 129 136 129q135 0 135 -129q0 -128 -135 -128
q-136 0 -136 128zM77 1266q0 129 136 129q135 0 135 -129q0 -128 -135 -128q-136 0 -136 128z" />
    <glyph glyph-name="uFE9C" unicode="&#x62b;" horiz-adv-x="757" arabic-form="medial" 
d="M627 557q9 -287 139 -288h13v-269h-13q-169 1 -274 138q-11 -9 -22 -17q-167 -120 -470 -120l-20 1v268h20q352 0 352 251l-1 112q1 168 144 168q132 0 132 -169v-75zM-74 1019q0 129 136 129q135 0 135 -129q0 -128 -135 -128q-136 0 -136 128zM222 1018q0 129 136 129
q135 0 135 -129q0 -128 -135 -128q-136 0 -136 128zM77 1266q0 129 136 129q135 0 135 -129q0 -128 -135 -128q-136 0 -136 128z" />
    <glyph glyph-name="u062C" unicode="&#x62c;" horiz-adv-x="1329" arabic-form="isolated" 
d="M405 -152q0 -17 4 -35l2 -6q24 -84 126 -84q16 0 34 4q23 5 42 5q64 0 98 -56q13 -20 18 -40q4 -14 4 -29q0 -43 -31 -88q-38 -57 -118 -77q-35 -9 -79 -10q-122 0 -238 99q-82 72 -113 158q-28 78 -29 154v42q0 125 77 222q109 112 199.5 136t275.5 37q129 0 129 108
q0 134 -92 206q-31 24 -66 24q-71 0 -161 -96q-106 -105 -189 -105h-4q-56 0 -101 50q-28 32 -28 77q0 11 1 22q6 70 58 132q123 153 273 215q56 23 121 23q106 0 235 -63q207 -101 227 -375q5 -164 50 -223q26 -34 65 -34q7 0 15 2q14 2 25 2q44 0 44 -34q0 -31 -38 -91
q-60 -93 -270 -114q-61 -6 -135 -6q-81 7 -149 7q-93 0 -162 -13q-120 -23 -120 -146zM801 -229q0 129 136 129q135 0 135 -129q0 -128 -135 -128q-136 0 -136 128z" />
    <glyph glyph-name="uFE9E" unicode="&#x62c;" horiz-adv-x="1167" arabic-form="final" 
d="M1095 360q12 -51 33 -75q22 -16 46 -16h15v-269h-21q-163 3 -217 118q-76 -98 -229 -114q-20 -2 -42 -3q-7 1 -14 1q-20 1 -39 1q-55 0 -102 -9q-120 -23 -120 -146q0 -17 4 -35l2 -6q24 -84 126 -84q16 0 34 4q23 5 42 5q64 0 98 -56q13 -20 18 -40q4 -14 4 -29
q0 -43 -31 -88q-38 -57 -118 -77q-35 -9 -79 -10q-122 0 -238 99q-82 72 -113 158q-28 78 -29 154v42q0 125 77 222q109 112 199.5 136t275.5 37q129 0 129 108q0 134 -92 206q-31 24 -66 24q-71 0 -161 -96q-106 -105 -189 -105h-4q-56 0 -101 50q-28 32 -28 77q0 11 1 22
q6 70 58 132q123 153 273 215q56 23 121 23q106 0 235 -63q207 -101 227 -375v-6q3 -80 15 -132zM801 -229q0 129 136 129q135 0 135 -129q0 -128 -135 -128q-136 0 -136 128z" />
    <glyph glyph-name="uFE9F" unicode="&#x62c;" horiz-adv-x="1178" arabic-form="initial" 
d="M-21 269h521q155 11 155 119q0 134 -92 206q-31 24 -66 24q-71 0 -161 -96q-106 -105 -189 -105h-4q-56 0 -101 50q-28 32 -28 77q0 11 1 22q6 70 58 132q123 153 273 215q56 23 121 23q106 0 235 -63q207 -101 227 -375q5 -164 50 -223q26 -34 65 -34q7 0 15 2
q14 2 25 2q44 0 44 -34q0 -31 -38 -91q-60 -93 -270 -114q-61 -6 -135 -6l-143 -1h-563v270zM222 -229q0 129 136 129q135 0 135 -129q0 -128 -135 -128q-136 0 -136 128z" />
    <glyph glyph-name="uFEA0" unicode="&#x62c;" horiz-adv-x="1009" arabic-form="medial" 
d="M439 0h-460v269h521q155 11 155 119q0 134 -92 206q-31 24 -66 24q-71 0 -161 -96q-106 -105 -189 -105h-4q-56 0 -101 50q-28 32 -28 77q0 11 1 22q6 70 58 132q123 153 273 215q56 23 121 23q106 0 235 -63q207 -101 227 -375q0 -15 1 -103q12 -79 40 -110
q22 -16 46 -16h15v-269h-21q-163 3 -217 118q-86 -111 -271 -117zM222 -229q0 129 136 129q135 0 135 -129q0 -128 -135 -128q-136 0 -136 128z" />
    <glyph glyph-name="u0686" unicode="&#x686;" horiz-adv-x="1340" arabic-form="isolated" 
d="M405 -152q0 -17 4 -35l2 -6q24 -84 126 -84q16 0 34 4q23 5 42 5q64 0 98 -56q13 -20 18 -40q4 -14 4 -29q0 -43 -31 -88q-38 -57 -118 -77q-35 -9 -79 -10q-122 0 -238 99q-82 72 -113 158q-28 78 -29 154v42q0 125 77 222q109 112 199.5 136t275.5 37q129 0 129 108
q0 134 -92 206q-31 24 -66 24q-71 0 -161 -96q-106 -105 -189 -105h-4q-56 0 -101 50q-28 32 -28 77q0 11 1 22q6 70 58 132q123 153 273 215q56 23 121 23q106 0 235 -63q207 -101 227 -375q5 -164 50 -223q26 -34 65 -34q7 0 15 2q14 2 25 2q44 0 44 -34q0 -31 -38 -91
q-60 -93 -270 -114q-61 -6 -135 -6q-81 7 -149 7q-93 0 -162 -13q-120 -23 -120 -146zM859 -101q135 0 135 -128q0 -129 -135 -129q-136 0 -136 129q0 128 136 128zM1155 -100q135 0 135 -128q0 -129 -135 -129q-136 0 -136 129q0 128 136 128zM1010 -348q135 0 135 -128
q0 -129 -135 -129q-136 0 -136 129q0 128 136 128z" />
    <glyph glyph-name="uFB7B" unicode="&#x686;" horiz-adv-x="1169" arabic-form="final" 
d="M1095 360q12 -51 33 -75q22 -16 46 -16h15v-269h-21q-163 3 -217 118q-76 -98 -229 -114q-20 -2 -42 -3q-7 1 -14 1q-20 1 -39 1q-55 0 -102 -9q-120 -23 -120 -146q0 -17 4 -35l2 -6q24 -84 126 -84q16 0 34 4q23 5 42 5q64 0 98 -56q13 -20 18 -40q4 -14 4 -29
q0 -43 -31 -88q-38 -57 -118 -77q-35 -9 -79 -10q-122 0 -238 99q-82 72 -113 158q-28 78 -29 154v42q0 125 77 222q109 112 199.5 136t275.5 37q129 0 129 108q0 134 -92 206q-31 24 -66 24q-71 0 -161 -96q-106 -105 -189 -105h-4q-56 0 -101 50q-28 32 -28 77q0 11 1 22
q6 70 58 132q123 153 273 215q56 23 121 23q106 0 235 -63q207 -101 227 -375v-6q3 -80 15 -132zM818 -101q95 0 95 -89q0 -91 -95 -91t-95 91q0 89 95 89zM1025 -100q95 0 95 -90t-95 -90t-95 90t95 90zM924 -274q94 0 94 -89q0 -91 -94 -91q-95 0 -95 91q0 89 95 89z" />
    <glyph glyph-name="uFB7C" unicode="&#x686;" horiz-adv-x="1178" arabic-form="initial" 
d="M-21 269h521q155 11 155 119q0 134 -92 206q-31 24 -66 24q-71 0 -161 -96q-106 -105 -189 -105h-4q-56 0 -101 50q-28 32 -28 77q0 11 1 22q6 70 58 132q123 153 273 215q56 23 121 23q106 0 235 -63q207 -101 227 -375q5 -164 50 -223q26 -34 65 -34q7 0 15 2
q14 2 25 2q44 0 44 -34q0 -31 -38 -91q-60 -93 -270 -114q-61 -6 -135 -6l-143 -1h-563v270zM346 -101q135 0 135 -128q0 -129 -135 -129q-136 0 -136 129q0 128 136 128zM642 -100q135 0 135 -128q0 -129 -135 -129q-136 0 -136 129q0 128 136 128zM497 -348
q135 0 135 -128q0 -129 -135 -129q-136 0 -136 129q0 128 136 128z" />
    <glyph glyph-name="uFB7D" unicode="&#x686;" horiz-adv-x="1011" arabic-form="medial" 
d="M439 0h-460v269h521q155 11 155 119q0 134 -92 206q-31 24 -66 24q-71 0 -161 -96q-106 -105 -189 -105h-4q-56 0 -101 50q-28 32 -28 77q0 11 1 22q6 70 58 132q123 153 273 215q56 23 121 23q106 0 235 -63q207 -101 227 -375q0 -15 1 -103q12 -79 40 -110
q22 -16 46 -16h15v-269h-21q-163 3 -217 118q-86 -111 -271 -117zM346 -101q135 0 135 -128q0 -129 -135 -129q-136 0 -136 129q0 128 136 128zM642 -100q135 0 135 -128q0 -129 -135 -129q-136 0 -136 129q0 128 136 128zM497 -348q135 0 135 -128q0 -129 -135 -129
q-136 0 -136 129q0 128 136 128z" />
    <glyph glyph-name="u062D" unicode="&#x62d;" horiz-adv-x="1329" arabic-form="isolated" 
d="M405 -152q0 -17 4 -35l2 -6q24 -84 126 -84q16 0 34 4q23 5 42 5q64 0 98 -56q13 -20 18 -40q4 -14 4 -29q0 -43 -31 -88q-38 -57 -118 -77q-35 -9 -79 -10q-122 0 -238 99q-82 72 -113 158q-28 78 -29 154v42q0 125 77 222q109 112 199.5 136t275.5 37q129 0 129 108
q0 134 -92 206q-31 24 -66 24q-71 0 -161 -96q-106 -105 -189 -105h-4q-56 0 -101 50q-28 32 -28 77q0 11 1 22q6 70 58 132q123 153 273 215q56 23 121 23q106 0 235 -63q207 -101 227 -375q5 -164 50 -223q26 -34 65 -34q7 0 15 2q14 2 25 2q44 0 44 -34q0 -31 -38 -91
q-60 -93 -270 -114q-61 -6 -135 -6q-81 7 -149 7q-93 0 -162 -13q-120 -23 -120 -146z" />
    <glyph glyph-name="uFEA2" unicode="&#x62d;" horiz-adv-x="1167" arabic-form="final" 
d="M1095 360q12 -51 33 -75q22 -16 46 -16h15v-269h-21q-163 3 -217 118q-76 -98 -229 -114q-20 -2 -42 -3q-7 1 -14 1q-20 1 -39 1q-55 0 -102 -9q-120 -23 -120 -146q0 -17 4 -35l2 -6q24 -84 126 -84q16 0 34 4q23 5 42 5q64 0 98 -56q13 -20 18 -40q4 -14 4 -29
q0 -43 -31 -88q-38 -57 -118 -77q-35 -9 -79 -10q-122 0 -238 99q-82 72 -113 158q-28 78 -29 154v42q0 125 77 222q109 112 199.5 136t275.5 37q129 0 129 108q0 134 -92 206q-31 24 -66 24q-71 0 -161 -96q-106 -105 -189 -105h-4q-56 0 -101 50q-28 32 -28 77q0 11 1 22
q6 70 58 132q123 153 273 215q56 23 121 23q106 0 235 -63q207 -101 227 -375v-6q3 -80 15 -132z" />
    <glyph glyph-name="uFEA3" unicode="&#x62d;" horiz-adv-x="1178" arabic-form="initial" 
d="M-21 269h521q155 11 155 119q0 134 -92 206q-31 24 -66 24q-71 0 -161 -96q-106 -105 -189 -105h-4q-56 0 -101 50q-28 32 -28 77q0 11 1 22q6 70 58 132q123 153 273 215q56 23 121 23q106 0 235 -63q207 -101 227 -375q5 -164 50 -223q26 -34 65 -34q7 0 15 2
q14 2 25 2q44 0 44 -34q0 -31 -38 -91q-60 -93 -270 -114q-61 -6 -135 -6l-143 -1h-563v270z" />
    <glyph glyph-name="uFEA4" unicode="&#x62d;" horiz-adv-x="1010" arabic-form="medial" 
d="M439 0h-460v269h521q155 11 155 119q0 134 -92 206q-31 24 -66 24q-71 0 -161 -96q-106 -105 -189 -105h-4q-56 0 -101 50q-28 32 -28 77q0 11 1 22q6 70 58 132q123 153 273 215q56 23 121 23q106 0 235 -63q207 -101 227 -375q0 -15 1 -103q12 -79 40 -110
q22 -16 46 -16h15v-269h-21q-163 3 -217 118q-86 -111 -271 -117z" />
    <glyph glyph-name="u062E" unicode="&#x62e;" horiz-adv-x="1329" arabic-form="isolated" 
d="M405 -152q0 -17 4 -35l2 -6q24 -84 126 -84q16 0 34 4q23 5 42 5q64 0 98 -56q13 -20 18 -40q4 -14 4 -29q0 -43 -31 -88q-38 -57 -118 -77q-35 -9 -79 -10q-122 0 -238 99q-82 72 -113 158q-28 78 -29 154v42q0 125 77 222q109 112 199.5 136t275.5 37q129 0 129 108
q0 134 -92 206q-31 24 -66 24q-71 0 -161 -96q-106 -105 -189 -105h-4q-56 0 -101 50q-28 32 -28 77q0 11 1 22q6 70 58 132q123 153 273 215q56 23 121 23q106 0 235 -63q207 -101 227 -375q5 -164 50 -223q26 -34 65 -34q7 0 15 2q14 2 25 2q44 0 44 -34q0 -31 -38 -91
q-60 -93 -270 -114q-61 -6 -135 -6q-81 7 -149 7q-93 0 -162 -13q-120 -23 -120 -146zM439 1152q0 129 136 129q135 0 135 -129q0 -128 -135 -128q-136 0 -136 128z" />
    <glyph glyph-name="uFEA6" unicode="&#x62e;" horiz-adv-x="1167" arabic-form="final" 
d="M1095 360q12 -51 33 -75q22 -16 46 -16h15v-269h-21q-163 3 -217 118q-76 -98 -229 -114q-20 -2 -42 -3q-7 1 -14 1q-20 1 -39 1q-55 0 -102 -9q-120 -23 -120 -146q0 -17 4 -35l2 -6q24 -84 126 -84q16 0 34 4q23 5 42 5q64 0 98 -56q13 -20 18 -40q4 -14 4 -29
q0 -43 -31 -88q-38 -57 -118 -77q-35 -9 -79 -10q-122 0 -238 99q-82 72 -113 158q-28 78 -29 154v42q0 125 77 222q109 112 199.5 136t275.5 37q129 0 129 108q0 134 -92 206q-31 24 -66 24q-71 0 -161 -96q-106 -105 -189 -105h-4q-56 0 -101 50q-28 32 -28 77q0 11 1 22
q6 70 58 132q123 153 273 215q56 23 121 23q106 0 235 -63q207 -101 227 -375v-6q3 -80 15 -132zM439 1152q0 129 136 129q135 0 135 -129q0 -128 -135 -128q-136 0 -136 128z" />
    <glyph glyph-name="uFEA7" unicode="&#x62e;" horiz-adv-x="1178" arabic-form="initial" 
d="M-21 269h521q155 11 155 119q0 134 -92 206q-31 24 -66 24q-71 0 -161 -96q-106 -105 -189 -105h-4q-56 0 -101 50q-28 32 -28 77q0 11 1 22q6 70 58 132q123 153 273 215q56 23 121 23q106 0 235 -63q207 -101 227 -375q5 -164 50 -223q26 -34 65 -34q7 0 15 2
q14 2 25 2q44 0 44 -34q0 -31 -38 -91q-60 -93 -270 -114q-61 -6 -135 -6l-143 -1h-563v270zM222 1152q0 129 136 129q135 0 135 -129q0 -128 -135 -128q-136 0 -136 128z" />
    <glyph glyph-name="uFEA8" unicode="&#x62e;" horiz-adv-x="1010" arabic-form="medial" 
d="M439 0h-460v269h521q155 11 155 119q0 134 -92 206q-31 24 -66 24q-71 0 -161 -96q-106 -105 -189 -105h-4q-56 0 -101 50q-28 32 -28 77q0 11 1 22q6 70 58 132q123 153 273 215q56 23 121 23q106 0 235 -63q207 -101 227 -375q0 -15 1 -103q12 -79 40 -110
q22 -16 46 -16h15v-269h-21q-163 3 -217 118q-86 -111 -271 -117zM222 1152q0 129 136 129q135 0 135 -129q0 -128 -135 -128q-136 0 -136 128z" />
    <glyph glyph-name="u062F" unicode="&#x62f;" horiz-adv-x="1019" arabic-form="isolated" 
d="M964 267q-3 -30 -11 -60q-60 -206 -241 -207h-434q-151 1 -153 126v2q0 141 159 141h258q126 0 126 58q0 23 -19 54l-125 158q-25 37 -66 37q-36 0 -85 -28q-36 -22 -69 -22q-36 0 -68 28q-17 14 -37 43q-16 27 -16 60q0 23 8 50q17 61 82 101q28 17 67 30q52 19 104 19
q71 0 141 -35q37 -18 75 -49q50 -32 107 -102l140 -185q52 -82 62 -166q0 -27 -5 -53z" />
    <glyph glyph-name="uFEAA" unicode="&#x62f;" horiz-adv-x="1145" arabic-form="final" 
d="M1167 269v-269h-53q-127 0 -213 94q-11 -15 -23 -28q-15 -16 -33 -28v1q-55 -39 -133 -39h-434q-151 1 -153 126v2q0 141 159 141h258q126 0 126 58q0 23 -19 54l-125 158q-25 37 -66 37q-36 0 -85 -28q-36 -22 -69 -22q-36 0 -68 28q-17 14 -37 43q-16 27 -16 60
q0 23 8 50q17 61 82 101q28 17 67 30q52 19 104 19q71 0 141 -35q37 -18 75 -49q50 -32 107 -102l140 -185q87 -130 151.5 -173.5t108.5 -43.5z" />
    <glyph glyph-name="u0630" unicode="&#x630;" horiz-adv-x="1019" arabic-form="isolated" 
d="M964 267q-3 -30 -11 -60q-60 -206 -241 -207h-434q-151 1 -153 126v2q0 141 159 141h258q126 0 126 58q0 23 -19 54l-125 158q-25 37 -66 37q-36 0 -85 -28q-36 -22 -69 -22q-36 0 -68 28q-17 14 -37 43q-16 27 -16 60q0 23 8 50q17 61 82 101q28 17 67 30q52 19 104 19
q71 0 141 -35q37 -18 75 -49q50 -32 107 -102l140 -185q52 -82 62 -166q0 -27 -5 -53zM413 1194q135 0 135 -128q0 -129 -135 -129q-136 0 -136 129q0 128 136 128z" />
    <glyph glyph-name="uFEAC" unicode="&#x630;" horiz-adv-x="1145" arabic-form="final" 
d="M1167 269v-269h-53q-127 0 -213 94q-11 -15 -23 -28q-15 -16 -33 -28v1q-55 -39 -133 -39h-434q-151 1 -153 126v2q0 141 159 141h258q126 0 126 58q0 23 -19 54l-125 158q-25 37 -66 37q-36 0 -85 -28q-36 -22 -69 -22q-36 0 -68 28q-17 14 -37 43q-16 27 -16 60
q0 23 8 50q17 61 82 101q28 17 67 30q52 19 104 19q71 0 141 -35q37 -18 75 -49q50 -32 107 -102l140 -185q87 -130 151.5 -173.5t108.5 -43.5zM413 1194q135 0 135 -128q0 -129 -135 -129q-136 0 -136 129q0 128 136 128z" />
    <glyph glyph-name="u0631" unicode="&#x631;" horiz-adv-x="665" arabic-form="isolated" 
d="M326 94v20q2 82 2 407q0 153 131 154h15q116 0 128 -165q1 -44 1 -87q0 -48 -3 -94q1 -15 1 -31q0 -114 -26.5 -289t-155.5 -299t-259 -160q-43 -9 -79 -9q-83 0 -133 47q-54 49 -54 107q0 21 8 43q27 63 124 83q170 28 221 89q71 63 79 184z" />
    <glyph glyph-name="uFEAE" unicode="&#x631;" horiz-adv-x="648" arabic-form="final" 
d="M535 269h133v-269h-55q-37 0 -59 -15q-30 -22 -35 -97q-4 -69 -16 -135q-28 -123 -140 -216q-148 -104 -284 -104h-36q-140 0 -168 36q-20 0 -48 88v32q0 84 112 124q17 0 32 4q38 -4 72 -4h24q83 0 148 80q32 52 32 122t10 120l10 50q81 184 268 184z" />
    <glyph glyph-name="u0632" unicode="&#x632;" horiz-adv-x="638" arabic-form="isolated" 
d="M446 914q135 0 135 -128q0 -129 -135 -129q-136 0 -136 129q0 128 136 128zM326 94v20q2 82 2 277q0 153 131 154h15q116 0 128 -165q1 -44 1 -87q0 -48 -3 -94q-5 -144 -38.5 -268.5t-152.5 -234.5t-249 -146q-43 -9 -79 -9q-83 0 -133 47q-54 49 -54 107q0 21 8 43
q27 63 124 83q170 28 221 89q71 63 79 184z" />
    <glyph glyph-name="uFEB0" unicode="&#x632;" horiz-adv-x="648" arabic-form="final" 
d="M535 269h133v-269h-55q-37 0 -59 -15q-30 -22 -35 -97q-4 -69 -16 -135q-28 -123 -140 -216q-148 -104 -284 -104h-36q-140 0 -168 36q-20 0 -48 88v32q0 84 112 124q17 0 32 4q38 -4 72 -4h24q83 0 148 80q32 52 32 122t10 120l10 50q81 184 268 184zM288 749
q135 0 135 -128q0 -129 -135 -129q-136 0 -136 129q0 128 136 128z" />
    <glyph glyph-name="u0698" unicode="&#x698;" horiz-adv-x="644" arabic-form="isolated" 
d="M332 94v20q2 82 2 277q0 153 131 154h15q116 0 128 -165q1 -44 1 -87q0 -48 -3 -94q-5 -144 -38.5 -268.5t-152.5 -234.5t-249 -146q-43 -9 -79 -9q-83 0 -133 47q-54 49 -54 107q0 21 8 43q27 63 124 83q170 28 221 89q71 63 79 184zM66 768q0 129 136 129
q135 0 135 -129q0 -128 -135 -128q-136 0 -136 128zM362 767q0 129 136 129q135 0 135 -129q0 -128 -135 -128q-136 0 -136 128zM217 1015q0 129 136 129q135 0 135 -129q0 -128 -135 -128q-136 0 -136 128z" />
    <glyph glyph-name="uFB8B" unicode="&#x698;" horiz-adv-x="663" arabic-form="final" 
d="M535 269h143v-269h-65q-37 0 -59 -15q-30 -22 -35 -97q-4 -69 -16 -135q-28 -123 -140 -216q-148 -104 -284 -104h-36q-140 0 -168 36q-20 0 -48 88v32q0 84 112 124q17 0 32 4q38 -4 72 -4h24q83 0 148 80q32 52 32 122t10 120l10 50q81 184 268 184zM140 595
q0 129 136 129q135 0 135 -129q0 -128 -135 -128q-136 0 -136 128zM436 594q0 129 136 129q135 0 135 -129q0 -128 -135 -128q-136 0 -136 128zM291 842q0 129 136 129q135 0 135 -129q0 -128 -135 -128q-136 0 -136 128z" />
    <glyph glyph-name="u0633" unicode="&#x633;" horiz-adv-x="2200" arabic-form="isolated" 
d="M403 99v-116q1 -204 264 -204q260 0 260 274v528q0 219 145 219q151 -1 151 -177v-242q7 -132 110 -132q79 0 79 116v258q0 170 154 177q125 0 131 -183v-230q7 -141 101 -141h2q91 0 91 135v228q0 191 138 191q120 0 120 -190l-1 -127q2 -32 2 -63q0 -187 -64 -295
q-75 -125 -218 -135h-47q-186 10 -252 109q-39 -99 -197 -129q-102 0 -127 15t-26 15q-19 -259 -162 -370q-157 -120 -380 -120q-235 0 -393 105.5t-158 366.5q-1 33 -1 64q0 28 1 54q7 238 81 318q89 124 208 153q43 9 79 9q83 0 133 -47q54 -49 54 -107q0 -21 -8 -43
q-26 -83 -124 -83q-130 0 -146 -201z" />
    <glyph glyph-name="uFEB2" unicode="&#x633;" horiz-adv-x="2270" arabic-form="final" 
d="M405 99l1 -116q1 -204 264 -204q260 0 260 274v528q0 219 145 219q151 -1 151 -177v-242q7 -132 110 -132q79 0 79 116v258q0 170 154 177q125 0 131 -183v-230q7 -141 101 -141h2q91 0 91 135v228q0 191 138 191q120 0 120 -190l-1 -127q1 -142 35 -173q34 -41 101 -41
h5v-269h-35q-122 8 -166 122l2 11l-4 -8q-75 -125 -218 -135h-47q-186 10 -252 109q-39 -99 -197 -129q-102 0 -127 15t-26 15q-19 -259 -162 -370q-157 -120 -380 -120q-235 0 -393 105.5t-158 366.5q-4 55 -4 104q0 156 37 244q19 56 48 88q89 124 208 153q43 9 79 9
q83 0 133 -47q54 -49 54 -107q0 -21 -8 -43q-26 -83 -124 -83q-130 0 -147 -198v-3z" />
    <glyph glyph-name="uFEB3" unicode="&#x633;" horiz-adv-x="1462" arabic-form="initial" 
d="M189 581q0 219 145 219q151 -1 151 -177v-242q7 -132 110 -132q79 0 79 116v258q0 170 154 177q125 0 131 -183v-230q7 -141 101 -141h2q91 0 91 135v228q0 191 138 191q120 0 121 -189v-191q0 -187 -64 -295q-75 -125 -218 -135h-47q-186 10 -252 109q-39 -99 -197 -129
q-20 -1 -40 -1q-197 0 -296 110q-99 -79 -240 -79h-78v269h105q104 0 104 156v156z" />
    <glyph glyph-name="uFEB4" unicode="&#x633;" horiz-adv-x="1560" arabic-form="medial" 
d="M1346 122q-75 -122 -216 -132h-47q-186 10 -252 109q-39 -99 -197 -129q-20 -1 -40 -1q-197 0 -296 110q-99 -79 -240 -79h-78v269h105q104 0 104 156v156q0 219 145 219q151 -1 151 -177v-242q7 -132 110 -132q79 0 79 116v258q0 170 154 177q125 0 131 -183v-230
q7 -141 101 -141h2q91 0 91 135v228q0 191 138 191q120 0 119 -190v-127q4 -214 169 -214h1v-269h-45q-110 7 -189 122z" />
    <glyph glyph-name="u0634" unicode="&#x634;" horiz-adv-x="2200" arabic-form="isolated" 
d="M1262 972q0 129 136 129q135 0 135 -129q0 -128 -135 -128q-136 0 -136 128zM1413 1219q0 129 136 129q135 0 135 -129q0 -128 -135 -128q-136 0 -136 128zM1558 971q0 129 136 129q135 0 135 -129q0 -128 -135 -128q-136 0 -136 128zM403 99v-116q1 -204 264 -204
q260 0 260 274v528q0 219 145 219q151 -1 151 -177v-242q7 -132 110 -132q79 0 79 116v258q0 170 154 177q125 0 131 -183v-230q7 -141 101 -141h2q91 0 91 135v228q0 191 138 191q120 0 120 -190l-1 -127q2 -32 2 -63q0 -187 -64 -295q-75 -125 -218 -135h-47
q-186 10 -252 109q-39 -99 -197 -129q-102 0 -127 15t-26 15q-19 -259 -162 -370q-157 -120 -380 -120q-235 0 -393 105.5t-158 366.5q-1 33 -1 64q0 28 1 54q7 238 81 318q89 124 208 153q43 9 79 9q83 0 133 -47q54 -49 54 -107q0 -21 -8 -43q-26 -83 -124 -83
q-130 0 -146 -201z" />
    <glyph glyph-name="uFEB6" unicode="&#x634;" horiz-adv-x="2272" arabic-form="final" 
d="M1265 972q0 129 136 129q135 0 135 -129q0 -128 -135 -128q-136 0 -136 128zM1561 971q0 129 136 129q135 0 135 -129q0 -128 -135 -128q-136 0 -136 128zM1416 1219q0 129 136 129q135 0 135 -129q0 -128 -135 -128q-136 0 -136 128zM405 99l1 -116q1 -204 264 -204
q260 0 260 274v528q0 219 145 219q151 -1 151 -177v-242q7 -132 110 -132q79 0 79 116v258q0 170 154 177q125 0 131 -183v-230q7 -141 101 -141h2q91 0 91 135v228q0 191 138 191q120 0 120 -190l-1 -127q1 -142 35 -173q34 -41 101 -41h5v-269h-35q-122 8 -166 122l2 11
l-4 -8q-75 -125 -218 -135h-47q-186 10 -252 109q-39 -99 -197 -129q-102 0 -127 15t-26 15q-19 -259 -162 -370q-157 -120 -380 -120q-235 0 -393 105.5t-158 366.5q-4 55 -4 104q0 156 37 244q19 56 48 88q89 124 208 153q43 9 79 9q83 0 133 -47q54 -49 54 -107
q0 -21 -8 -43q-26 -83 -124 -83q-130 0 -147 -198v-3z" />
    <glyph glyph-name="uFEB7" unicode="&#x634;" horiz-adv-x="1462" arabic-form="initial" 
d="M524 972q0 129 136 129q135 0 135 -129q0 -128 -135 -128q-136 0 -136 128zM675 1219q0 129 136 129q135 0 135 -129q0 -128 -135 -128q-136 0 -136 128zM820 971q0 129 136 129q135 0 135 -129q0 -128 -135 -128q-136 0 -136 128zM189 581q0 219 145 219
q151 -1 151 -177v-242q7 -132 110 -132q79 0 79 116v258q0 170 154 177q125 0 131 -183v-230q7 -141 101 -141h2q91 0 91 135v228q0 191 138 191q120 0 121 -189v-191q0 -187 -64 -295q-75 -125 -218 -135h-47q-186 10 -252 109q-39 -99 -197 -129q-20 -1 -40 -1
q-197 0 -296 110q-99 -79 -240 -79h-78v269h105q104 0 104 156v156z" />
    <glyph glyph-name="uFEB8" unicode="&#x634;" horiz-adv-x="1560" arabic-form="medial" 
d="M1346 122q-75 -122 -216 -132h-47q-186 10 -252 109q-39 -99 -197 -129q-20 -1 -40 -1q-197 0 -296 110q-99 -79 -240 -79h-78v269h105q104 0 104 156v156q0 219 145 219q151 -1 151 -177v-242q7 -132 110 -132q79 0 79 116v258q0 170 154 177q125 0 131 -183v-230
q7 -141 101 -141h2q91 0 91 135v228q0 191 138 191q120 0 119 -190v-127q4 -214 169 -214h1v-269h-45q-110 7 -189 122zM675 1219q0 129 136 129q135 0 135 -129q0 -128 -135 -128q-136 0 -136 128zM820 971q0 129 136 129q135 0 135 -129q0 -128 -135 -128q-136 0 -136 128
zM524 972q0 129 136 129q135 0 135 -129q0 -128 -135 -128q-136 0 -136 128z" />
    <glyph glyph-name="u0635" unicode="&#x635;" horiz-adv-x="2334" arabic-form="isolated" 
d="M1204 0q-21 -271 -158 -370q-167 -120 -380 -120q-225 0 -383 105.5t-158 366.5l1 118q7 238 81 318q89 124 208 153q43 9 79 9q83 0 133 -47q54 -49 54 -107q0 -21 -8 -43q-26 -83 -124 -83q-130 0 -146 -201h-1v-116q1 -204 264 -204q262 0 281 271v466q1 204 150 204
q132 0 132 -205v-117q87 224 266 300q137 81 359 95q416 0 430 -313v-176q-22 -159 -132 -231.5t-364 -72.5h-584zM1426 269h424q176 0 176 120q0 136 -122 136h-7q-396 -20 -471 -256z" />
    <glyph glyph-name="uFEBA" unicode="&#x635;" horiz-adv-x="2389" arabic-form="final" 
d="M2284 390q42 -112 127 -121h-1v-269h-25q-107 7 -203 95q-14 -12 -30 -22q-110 -73 -364 -73h-584q-21 -271 -158 -370q-167 -120 -380 -120q-225 0 -383 105.5t-158 366.5l1 118q7 238 81 318q89 124 208 153q43 9 79 9q83 0 133 -47q54 -49 54 -107q0 -21 -8 -43
q-26 -83 -124 -83q-130 0 -146 -201h-1v-116q1 -204 264 -204q262 0 281 271v466q1 204 150 204q132 0 132 -205v-117q87 224 266 300q137 81 359 95q416 0 430 -313v-90zM1426 269h424q176 0 176 120q0 136 -122 136h-7q-396 -20 -471 -256z" />
    <glyph glyph-name="uFEBB" unicode="&#x635;" horiz-adv-x="1477" arabic-form="initial" 
d="M571 269h424q176 0 176 120q0 136 -122 136h-7q-396 -20 -471 -256zM90 516q1 204 150 204q132 0 132 -205v-117q87 224 266 300q137 81 359 95q416 0 430 -313v-176q-22 -159 -132 -231.5t-364 -72.5h-430q-118 0 -214 97l-30 31q-39 -101 -155 -128h-124v269h112v247z
" />
    <glyph glyph-name="uFEBC" unicode="&#x635;" horiz-adv-x="1574" arabic-form="medial" 
d="M575 269h424q176 0 176 120q0 136 -122 136h-7q-396 -20 -471 -256zM506 0q-118 0 -214 97l-30 31q-39 -101 -155 -128h-129v269h117v247q1 204 150 204q132 0 132 -205v-117q87 224 266 300q137 81 359 95q416 0 430 -313l1 -17q1 -15 22.5 -98.5t131.5 -95.5h9v-269
h-35q-120 8 -207 119q-23 -26 -54 -46q-110 -73 -364 -73h-430z" />
    <glyph glyph-name="u0636" unicode="&#x636;" horiz-adv-x="2334" arabic-form="isolated" 
d="M1204 0q-21 -271 -158 -370q-167 -120 -380 -120q-225 0 -383 105.5t-158 366.5l1 118q7 238 81 318q89 124 208 153q43 9 79 9q83 0 133 -47q54 -49 54 -107q0 -21 -8 -43q-26 -83 -124 -83q-130 0 -146 -201h-1v-116q1 -204 264 -204q262 0 281 271v466q1 204 150 204
q132 0 132 -205v-117q87 224 266 300q137 81 359 95q416 0 430 -313v-176q-22 -159 -132 -231.5t-364 -72.5h-584zM1387 1070q135 0 135 -128q0 -129 -135 -129q-136 0 -136 129q0 128 136 128zM1426 269h424q176 0 176 120q0 136 -122 136h-7q-396 -20 -471 -256z" />
    <glyph glyph-name="uFEBE" unicode="&#x636;" horiz-adv-x="2389" arabic-form="final" 
d="M2284 390q42 -112 127 -121h-1v-269h-25q-107 7 -203 95q-14 -12 -30 -22q-110 -73 -364 -73h-584q-21 -271 -158 -370q-167 -120 -380 -120q-225 0 -383 105.5t-158 366.5l1 118q7 238 81 318q89 124 208 153q43 9 79 9q83 0 133 -47q54 -49 54 -107q0 -21 -8 -43
q-26 -83 -124 -83q-130 0 -146 -201h-1v-116q1 -204 264 -204q262 0 281 271v466q1 204 150 204q132 0 132 -205v-117q87 224 266 300q137 81 359 95q416 0 430 -313v-90zM1387 1070q135 0 135 -128q0 -129 -135 -129q-136 0 -136 129q0 128 136 128zM1426 269h424
q176 0 176 120q0 136 -122 136h-7q-396 -20 -471 -256z" />
    <glyph glyph-name="uFEBF" unicode="&#x636;" horiz-adv-x="1477" arabic-form="initial" 
d="M571 269h424q176 0 176 120q0 136 -122 136h-7q-396 -20 -471 -256zM90 516q1 204 150 204q132 0 132 -205v-117q87 224 266 300q137 81 359 95q416 0 430 -313v-176q-22 -159 -132 -231.5t-364 -72.5h-430q-118 0 -214 97l-30 31q-39 -101 -155 -128h-124v269h112v247z
M582 1070q135 0 135 -128q0 -129 -135 -129q-136 0 -136 129q0 128 136 128z" />
    <glyph glyph-name="uFEC0" unicode="&#x636;" horiz-adv-x="1574" arabic-form="medial" 
d="M586 1070q135 0 135 -128q0 -129 -135 -129q-136 0 -136 129q0 128 136 128zM575 269h424q176 0 176 120q0 136 -122 136h-7q-396 -20 -471 -256zM506 0q-118 0 -214 97l-30 31q-39 -101 -155 -128h-129v269h117v247q1 204 150 204q132 0 132 -205v-117q87 224 266 300
q137 81 359 95q416 0 430 -313l1 -17q1 -15 22.5 -98.5t131.5 -95.5h9v-269h-35q-120 8 -207 119q-23 -26 -54 -46q-110 -73 -364 -73h-430z" />
    <glyph glyph-name="u0637" unicode="&#x637;" horiz-adv-x="1517" arabic-form="isolated" 
d="M611 269h424q176 0 176 120q0 136 -122 136h-7q-396 -20 -471 -256zM316 0q-191 0 -191 134v18q0 117 195 117h38q40 99 82 176v697q4 224 147 224h2q145 -2 146 -213v-426q124 55 302 66q416 0 430 -313v-176q-22 -159 -132 -231.5t-364 -72.5h-655z" />
    <glyph glyph-name="uFEC2" unicode="&#x637;" horiz-adv-x="1609" arabic-form="final" 
d="M616 269h424q176 0 176 120q0 136 -122 136h-7q-396 -20 -471 -256zM1467 469l1 -6q1 -15 22.5 -98.5t131.5 -95.5h9v-269h-35q-120 8 -207 119q-24 -27 -54 -46q-110 -73 -364 -73h-655q-191 0 -191 134v18q0 117 195 117h38q40 99 82 176v697q4 224 147 224h2
q145 -2 146 -213v-426q124 55 302 66q416 0 430 -313v-11z" />
    <glyph glyph-name="uFEC3" unicode="&#x637;" horiz-adv-x="1174" arabic-form="initial" 
d="M268 269h424q176 0 176 120q0 136 -122 136h-7q-396 -20 -471 -256zM392 727q124 55 302 66q416 0 430 -313v-176q-22 -159 -132 -231.5t-364 -72.5h-648v269h35q40 99 82 176v697q4 224 147 224h2q145 -2 146 -213v-426z" />
    <glyph glyph-name="uFEC4" unicode="&#x637;" horiz-adv-x="1269" arabic-form="medial" 
d="M268 269h424q176 0 176 120q0 136 -122 136h-7q-396 -20 -471 -256zM1149 365q21 -84 131 -96h9v-269h-35q-120 8 -207 119q-23 -26 -54 -46h-1q-110 -73 -364 -73h-648v269h35q40 99 82 176v697q4 224 147 224h2q145 -2 146 -213v-426q124 55 302 66q416 0 430 -313
q5 -55 25 -115z" />
    <glyph glyph-name="u0638" unicode="&#x638;" horiz-adv-x="1517" arabic-form="isolated" 
d="M611 269h424q176 0 176 120q0 136 -122 136h-7q-396 -20 -471 -256zM316 0q-191 0 -191 134v18q0 117 195 117h38q40 99 82 176v697q4 224 147 224h2q145 -2 146 -213v-426q124 55 302 66q416 0 430 -313v-176q-22 -159 -132 -231.5t-364 -72.5h-655zM937 1117
q135 0 135 -128q0 -129 -135 -129q-136 0 -136 129q0 128 136 128z" />
    <glyph glyph-name="uFEC6" unicode="&#x638;" horiz-adv-x="1609" arabic-form="final" 
d="M616 269h424q176 0 176 120q0 136 -122 136h-7q-396 -20 -471 -256zM1467 469l1 -6q1 -15 22.5 -98.5t131.5 -95.5h9v-269h-35q-120 8 -207 119q-24 -27 -54 -46q-110 -73 -364 -73h-655q-191 0 -191 134v18q0 117 195 117h38q40 99 82 176v697q4 224 147 224h2
q145 -2 146 -213v-426q124 55 302 66q416 0 430 -313v-11zM937 1117q135 0 135 -128q0 -129 -135 -129q-136 0 -136 129q0 128 136 128z" />
    <glyph glyph-name="uFEC7" unicode="&#x638;" horiz-adv-x="1174" arabic-form="initial" 
d="M268 269h424q176 0 176 120q0 136 -122 136h-7q-396 -20 -471 -256zM392 727q124 55 302 66q416 0 430 -313v-176q-22 -159 -132 -231.5t-364 -72.5h-648v269h35q40 99 82 176v697q4 224 147 224h2q145 -2 146 -213v-426zM594 1117q135 0 135 -128q0 -129 -135 -129
q-136 0 -136 129q0 128 136 128z" />
    <glyph glyph-name="uFEC8" unicode="&#x638;" horiz-adv-x="1269" arabic-form="medial" 
d="M268 269h424q176 0 176 120q0 136 -122 136h-7q-396 -20 -471 -256zM1149 365q21 -84 131 -96h9v-269h-35q-120 8 -207 119q-23 -26 -54 -46h-1q-110 -73 -364 -73h-648v269h35q40 99 82 176v697q4 224 147 224h2q145 -2 146 -213v-426q124 55 302 66q416 0 430 -313
q5 -55 25 -115zM594 1117q135 0 135 -128q0 -129 -135 -129q-136 0 -136 129q0 128 136 128z" />
    <glyph glyph-name="u0639" unicode="&#x639;" horiz-adv-x="1274" arabic-form="isolated" 
d="M384 238h1q-60 120 -60 179q-3 18 -3 38q0 102 89 235q103 154 298 177q32 4 63 4q157 0 285 -97q61 -41 100 -90q35 -54 35 -99q0 -55 -54 -96q-45 -33 -84 -33q-48 0 -108 48q-75 68 -172 69q-148 0 -160 -156q0 -83 90 -123q123 -25 314 -25q20 1 38 1q168 0 168 -117
q0 -146 -215 -153h-412q-39 0 -72 -6q-120 -23 -120 -146q0 -17 4 -35l2 -6q24 -84 126 -84q16 0 34 4q23 5 42 5q64 0 98 -56q13 -20 18 -40q4 -14 4 -29q0 -43 -31 -88q-38 -57 -118 -77q-35 -9 -79 -10q-122 0 -238 99q-82 72 -113 158q-28 78 -29 154v42q0 125 77 222
q46 47 88 78q23 19 49 32.5t45 20.5z" />
    <glyph glyph-name="uFECA" unicode="&#x639;" horiz-adv-x="1229" arabic-form="final" 
d="M799 577q-40 57 -111 58h-6q-67 0 -105 -55l112 -150zM976 269h275v-269h-333q-136 0 -222 144q-42 -116 -162 -138q-8 -3 -17 -6q-112 -29 -112 -152q0 -17 4 -35l2 -6q24 -84 126 -84q16 0 34 4q23 5 42 5q64 0 98 -56q13 -20 18 -40q4 -14 4 -29q0 -43 -31 -88
q-38 -57 -118 -77q-35 -9 -79 -10q-122 0 -238 99q-82 72 -113 158q-28 78 -29 154v42q0 125 77 222q46 47 88 78q23 19 49 32.5t57 24t58 26.5q11 8 8 17l-65 87l-62 89q-148 185 46 335q23 17 52 35q106 62 231 63h49q129 -4 237 -69q24 -15 47 -32l61 -49
q106 -115 25 -236l-101 -133l-64 -85q-6 -12 14.5 -16.5t43.5 -4.5z" />
    <glyph glyph-name="uFECB" unicode="&#x639;" horiz-adv-x="1023" arabic-form="initial" 
d="M574 269h185q20 1 38 1q168 0 168 -117q0 -146 -215 -153h-770v269h162q-36 89 -36 148q-3 18 -3 38q0 102 89 235q103 154 298 177q32 4 63 4q157 0 285 -97q61 -41 100 -90q35 -54 35 -99q0 -55 -54 -96q-45 -33 -84 -33q-48 0 -108 48q-75 68 -172 69
q-148 0 -160 -156q0 -118 179 -148z" />
    <glyph glyph-name="uFECC" unicode="&#x639;" horiz-adv-x="986" arabic-form="medial" 
d="M781 269h225v-269h-283q-136 0 -222 144q-52 -144 -225 -144h-292v269h235q43 0 56 12l-68 91q-227 254 -16 424q23 17 52 35q106 62 231 63h49q129 -4 237 -69q24 -15 47 -32l61 -49q106 -115 25 -236l-101 -133l-71 -94q4 -11 60 -12zM596 577q-40 57 -111 58h-6
q-67 0 -105 -55l112 -150z" />
    <glyph glyph-name="u063A" unicode="&#x63a;" horiz-adv-x="1274" arabic-form="isolated" 
d="M384 238h1q-60 120 -60 179q-3 18 -3 38q0 102 89 235q103 154 298 177q32 4 63 4q157 0 285 -97q61 -41 100 -90q35 -54 35 -99q0 -55 -54 -96q-45 -33 -84 -33q-48 0 -108 48q-75 68 -172 69q-148 0 -160 -156q0 -83 90 -123q123 -25 314 -25q20 1 38 1q168 0 168 -117
q0 -146 -215 -153h-412q-39 0 -72 -6q-120 -23 -120 -146q0 -17 4 -35l2 -6q24 -84 126 -84q16 0 34 4q23 5 42 5q64 0 98 -56q13 -20 18 -40q4 -14 4 -29q0 -43 -31 -88q-38 -57 -118 -77q-35 -9 -79 -10q-122 0 -238 99q-82 72 -113 158q-28 78 -29 154v42q0 125 77 222
q46 47 88 78q23 19 49 32.5t45 20.5zM781 1202q135 0 135 -128q0 -129 -135 -129q-136 0 -136 129q0 128 136 128z" />
    <glyph glyph-name="uFECE" unicode="&#x63a;" horiz-adv-x="1229" arabic-form="final" 
d="M799 577q-40 57 -111 58h-6q-67 0 -105 -55l112 -150zM667 1210q135 0 135 -128q0 -129 -135 -129q-136 0 -136 129q0 128 136 128zM976 269h275v-269h-333q-136 0 -222 144q-42 -116 -162 -138q-8 -3 -17 -6q-112 -29 -112 -152q0 -17 4 -35l2 -6q24 -84 126 -84
q16 0 34 4q23 5 42 5q64 0 98 -56q13 -20 18 -40q4 -14 4 -29q0 -43 -31 -88q-38 -57 -118 -77q-35 -9 -79 -10q-122 0 -238 99q-82 72 -113 158q-28 78 -29 154v42q0 125 77 222q46 47 88 78q23 19 49 32.5t57 24t58 26.5q11 8 8 17l-65 87l-62 89q-148 185 46 335
q23 17 52 35q106 62 231 63h49q129 -4 237 -69q24 -15 47 -32l61 -49q106 -115 25 -236l-101 -133l-64 -85q-6 -12 14.5 -16.5t43.5 -4.5z" />
    <glyph glyph-name="uFECF" unicode="&#x63a;" horiz-adv-x="1023" arabic-form="initial" 
d="M574 269h185q20 1 38 1q168 0 168 -117q0 -146 -215 -153h-770v269h162q-36 89 -36 148q-3 18 -3 38q0 102 89 235q103 154 298 177q32 4 63 4q157 0 285 -97q61 -41 100 -90q35 -54 35 -99q0 -55 -54 -96q-45 -33 -84 -33q-48 0 -108 48q-75 68 -172 69
q-148 0 -160 -156q0 -118 179 -148zM522 1210q135 0 135 -128q0 -129 -135 -129q-136 0 -136 129q0 128 136 128z" />
    <glyph glyph-name="uFED0" unicode="&#x63a;" horiz-adv-x="986" arabic-form="medial" 
d="M477 1210q135 0 135 -128q0 -129 -135 -129q-136 0 -136 129q0 128 136 128zM781 269h225v-269h-283q-136 0 -222 144q-52 -144 -225 -144h-292v269h235q43 0 56 12l-68 91q-227 254 -16 424q23 17 52 35q106 62 231 63h49q129 -4 237 -69q24 -15 47 -32l61 -49
q106 -115 25 -236l-101 -133l-71 -94q4 -11 60 -12zM596 577q-40 57 -111 58h-6q-67 0 -105 -55l112 -150z" />
    <glyph glyph-name="u0641" unicode="&#x641;" horiz-adv-x="1743" arabic-form="isolated" 
d="M1132 1205q0 129 136 129q135 0 135 -129q0 -128 -135 -128q-136 0 -136 128zM757 0q-305 0 -463 105.5t-168 386.5l-1 134q1 174 140 174t139 -167v-97q0 -267 353 -267h477q185 15 188 161q2 33 2 66q0 77 -13 147q-19 100 -140 100h-2q-81 -1 -91 -60q0 -65 72 -65h6
q130 0 130 -129q1 -3 1 -5q0 -117 -108 -146q-31 -5 -60 -5q-129 0 -220 94q-1 2 -3 3q-70 78 -81 226v27q11 300 278 332q31 7 86 7q192 0 292 -90q99 -88 116 -292q4 -43 4 -90q2 -28 2 -55q-4 -264 -126.5 -379.5t-358.5 -115.5h-451z" />
    <glyph glyph-name="uFED2" unicode="&#x641;" horiz-adv-x="1839" arabic-form="final" 
d="M1136 1205q0 129 136 129q135 0 135 -129q0 -128 -135 -128q-136 0 -136 128zM757 0q-305 0 -463 105.5t-168 386.5l-1 134q1 174 140 174t139 -167v-97q0 -267 353 -267h481q185 15 188 161q2 33 2 66q0 77 -13 147q-19 100 -140 100h-2q-81 -1 -91 -60q0 -65 72 -65h6
q130 0 130 -129q1 -3 1 -5q0 -117 -108 -146q-31 -5 -60 -5q-129 0 -220 94q-1 2 -3 3q-70 78 -81 226v27q11 300 278 332q31 7 86 7q192 0 292 -90q99 -88 116 -292q4 -43 4 -90q1 -36 1 -65q0 -60 -3 -93q32 -98 144 -123h24v-269h-40q-136 0 -258 108
q-122 -108 -351 -108h-455z" />
    <glyph glyph-name="uFED3" unicode="&#x641;" horiz-adv-x="887" arabic-form="initial" 
d="M276 1205q0 129 136 129q135 0 135 -129q0 -128 -135 -128q-136 0 -136 128zM59 683q11 300 278 332q31 7 86 7q192 0 292 -90q99 -88 116 -292q4 -43 4 -90q2 -28 2 -55q-4 -264 -126.5 -379.5t-358.5 -115.5h-372v269h398q185 15 188 161q2 33 2 66q0 77 -13 147
q-19 100 -140 100h-2q-81 -1 -91 -60q0 -65 72 -65h6q130 0 130 -129q1 -3 1 -5q0 -117 -108 -146q-31 -5 -60 -5q-129 0 -220 94q-1 2 -3 3q-70 78 -81 226v27z" />
    <glyph glyph-name="uFED4" unicode="&#x641;" horiz-adv-x="991" arabic-form="medial" 
d="M286 1205q0 129 136 129q135 0 135 -129q0 -128 -135 -128q-136 0 -136 128zM845 550q1 -36 1 -65q0 -60 -3 -93q32 -98 144 -123h24v-269h-40q-136 0 -258 108q-122 -108 -351 -108h-382v269h408q185 15 188 161q2 33 2 66q0 77 -13 147q-19 100 -140 100h-2
q-81 -1 -91 -60q0 -65 72 -65h6q130 0 130 -129q1 -3 1 -5q0 -117 -108 -146q-31 -5 -60 -5q-129 0 -220 94q-1 2 -3 3q-70 78 -81 226v27q11 300 278 332q31 7 86 7q192 0 292 -90q99 -88 116 -292q4 -43 4 -90z" />
    <glyph glyph-name="u0642" unicode="&#x642;" horiz-adv-x="1384" arabic-form="isolated" 
d="M629 944q0 129 136 129q135 0 135 -129q0 -128 -135 -128q-136 0 -136 128zM1063 166q2 33 2 66q0 77 -13 147q-19 100 -140 100h-2q-81 -1 -91 -60q0 -65 72 -65h6q130 0 130 -129q1 -3 1 -5q0 -117 -108 -146q-31 -5 -60 -5q-129 0 -220 94q-1 2 -3 3q-70 78 -81 226
v27q11 300 278 332q31 7 86 7q192 0 292 -90q99 -88 116 -292q6 -79 6 -154q0 -42 -2 -82q-5 -114 -45 -258.5t-176.5 -241.5t-383.5 -100q-255 0 -428 135.5t-173 336.5l-1 199v5q0 195 142 195q135 0 136 -197v-201q49 -204 314 -204q282 0 331 205q13 48 15 152zM925 943
q0 129 136 129q135 0 135 -129q0 -128 -135 -128q-136 0 -136 128z" />
    <glyph glyph-name="uFED6" unicode="&#x642;" horiz-adv-x="1481" arabic-form="final" 
d="M1328 380q17 -111 175 -111v-269q-11 -1 -21 -1q-101 0 -157 60q-12 -82 -38 -177q-40 -145 -176.5 -242t-383.5 -100q-255 0 -428 135.5t-173 336.5l-1 199v5q0 195 142 195q135 0 136 -197v-201q49 -204 314 -204q282 0 331 205q13 48 15 152q2 33 2 66q0 77 -13 147
q-19 100 -140 100h-2q-81 -1 -91 -60q0 -65 72 -65h6q130 0 130 -129q1 -3 1 -5q0 -117 -108 -146q-31 -5 -60 -5q-129 0 -220 94q-1 2 -3 3q-70 78 -81 226v27q11 300 278 332q31 7 86 7q192 0 292 -90q99 -88 116 -288zM629 944q0 129 136 129q135 0 135 -129
q0 -128 -135 -128q-136 0 -136 128zM925 943q0 129 136 129q135 0 135 -129q0 -128 -135 -128q-136 0 -136 128z" />
    <glyph glyph-name="uFED7" unicode="&#x642;" horiz-adv-x="887" arabic-form="initial" 
d="M59 683q11 300 278 332q31 7 86 7q192 0 292 -90q99 -88 116 -292q4 -43 4 -90q2 -28 2 -55q-4 -264 -126.5 -379.5t-358.5 -115.5h-372v269h398q185 15 188 161q2 33 2 66q0 77 -13 147q-19 100 -140 100h-2q-81 -1 -91 -60q0 -65 72 -65h6q130 0 130 -129q1 -3 1 -5
q0 -117 -108 -146q-31 -5 -60 -5q-129 0 -220 94q-1 2 -3 3q-70 78 -81 226v27zM132 1208q0 129 136 129q135 0 135 -129q0 -128 -135 -128q-136 0 -136 128zM428 1207q0 129 136 129q135 0 135 -129q0 -128 -135 -128q-136 0 -136 128z" />
    <glyph glyph-name="uFED8" unicode="&#x642;" horiz-adv-x="991" arabic-form="medial" 
d="M845 550q1 -36 1 -65q0 -60 -3 -93q32 -98 144 -123h24v-269h-40q-136 0 -258 108q-122 -108 -351 -108h-382v269h408q185 15 188 161q2 33 2 66q0 77 -13 147q-19 100 -140 100h-2q-81 -1 -91 -60q0 -65 72 -65h6q130 0 130 -129q1 -3 1 -5q0 -117 -108 -146
q-31 -5 -60 -5q-129 0 -220 94q-1 2 -3 3q-70 78 -81 226v27q11 300 278 332q31 7 86 7q192 0 292 -90q99 -88 116 -292q4 -43 4 -90zM132 1208q0 129 136 129q135 0 135 -129q0 -128 -135 -128q-136 0 -136 128zM428 1207q0 129 136 129q135 0 135 -129q0 -128 -135 -128
q-136 0 -136 128z" />
    <glyph glyph-name="u0643" unicode="&#x643;" horiz-adv-x="1700" arabic-form="isolated" 
d="M1054 601q-173 44 -205 105q-44 76 -44 150q0 61 31 122q67 132 346 294q268 171 359 171q67 0 96 -50q13 -24 13 -50q0 -79 -200 -221q-48 -40 -121 -82q-142 -83 -230 -162q91 -4 209 -43q278 -93 298 -355v1q5 -83 -18 -174.5t-102 -165.5q-62 -53 -155 -82
q-231 -59 -558 -62v3q-325 2 -479 106q-158 105 -168 386l-1 64q1 174 140 174t139 -167v-27q0 -262 390 -267q530 36 546 141v12q0 105 -284 179h-2z" />
    <glyph glyph-name="uFEDA" unicode="&#x6a9;" horiz-adv-x="1717" arabic-form="final" 
d="M1054 601q-173 44 -205 105q-44 76 -44 150q0 61 31 122q67 132 346 294q268 171 359 171q67 0 96 -50q13 -24 13 -50q0 -79 -200 -221q-48 -40 -121 -82q-142 -83 -230 -162q91 -4 209 -43q278 -93 298 -355v1q1 -20 1 -41q0 -27 9.5 -90t87.5 -81h35v-269h-35
q-113 14 -186 105l-32 36q-62 -53 -155 -82q-231 -59 -558 -62v3q-325 2 -479 106q-158 105 -168 386l-1 64q1 174 140 174t139 -167v-27q0 -262 390 -267q530 36 546 141v12q0 105 -284 179h-2z" />
    <glyph glyph-name="uFEDB" unicode="&#x6a9;" horiz-adv-x="880" arabic-form="initial" 
d="M779 359q-23 -138 -121 -223q-60 -49 -149 -77q-231 -59 -447 -59h-76v269h201q315 36 331 141v12q0 105 -284 179q-173 44 -205 105q-44 76 -44 150q0 61 31 122q67 132 346 294q268 171 359 171q67 0 96 -50q13 -24 13 -50q0 -101 -323 -303q-142 -83 -230 -162
q91 -4 209 -43q299 -100 299 -395q0 -43 -6 -81z" />
    <glyph glyph-name="uFEDC" unicode="&#x6a9;" horiz-adv-x="897" arabic-form="medial" 
d="M779 359q24 -90 93 -90h45v-269h-25q-104 6 -206 105l-28 31q-60 -49 -149 -77q-231 -59 -447 -59h-76v269h201q315 36 331 141v12q0 105 -284 179q-173 44 -205 105q-44 76 -44 150q0 61 31 122q67 132 346 294q268 171 359 171q67 0 96 -50q13 -24 13 -50
q0 -101 -323 -303q-142 -83 -230 -162q91 -4 209 -43q299 -100 299 -395q0 -43 -6 -81z" />
    <glyph glyph-name="u06AF" unicode="&#x6af;" horiz-adv-x="1700" arabic-form="isolated" 
d="M868 1236q-21 23 -21 48q0 27 26 56q48 56 341 235q103 60 161 60q43 0 61 -32q9 -15 9 -32q0 -64 -139 -144l-233 -139q-102 -62 -163 -62q-24 0 -42 10zM1054 601q-173 44 -205 105q-44 76 -44 150q0 61 31 122q67 132 346 294q268 171 359 171q67 0 96 -50
q13 -24 13 -50q0 -79 -200 -221q-48 -40 -121 -82q-142 -83 -230 -162q91 -4 209 -43q278 -93 298 -355v1q5 -83 -18 -174.5t-102 -165.5q-62 -53 -155 -82q-231 -59 -558 -62v3q-325 2 -479 106q-158 105 -168 386l-1 64q1 174 140 174t139 -167v-27q0 -262 390 -267
q530 36 546 141v12q0 105 -284 179h-2z" />
    <glyph glyph-name="uFB93" unicode="&#x6af;" horiz-adv-x="1717" arabic-form="final" 
d="M868 1236q-21 23 -21 48q0 27 26 56q48 56 341 235q103 60 161 60q43 0 61 -32q9 -15 9 -32q0 -64 -139 -144l-233 -139q-102 -62 -163 -62q-24 0 -42 10zM1054 601q-173 44 -205 105q-44 76 -44 150q0 61 31 122q67 132 346 294q268 171 359 171q67 0 96 -50
q13 -24 13 -50q0 -79 -200 -221q-48 -40 -121 -82q-142 -83 -230 -162q91 -4 209 -43q278 -93 298 -355v1q1 -20 1 -41q0 -27 9.5 -90t87.5 -81h35v-269h-35q-113 14 -186 105l-32 36q-62 -53 -155 -82q-231 -59 -558 -62v3q-325 2 -479 106q-158 105 -168 386l-1 64
q1 174 140 174t139 -167v-27q0 -262 390 -267q530 36 546 141v12q0 105 -284 179h-2z" />
    <glyph glyph-name="uFB94" unicode="&#x6af;" horiz-adv-x="880" arabic-form="initial" 
d="M779 359q-23 -138 -121 -223q-60 -49 -149 -77q-231 -59 -447 -59h-76v269h201q315 36 331 141v12q0 105 -284 179q-173 44 -205 105q-44 76 -44 150q0 61 31 122q67 132 346 294q268 171 359 171q67 0 96 -50q13 -24 13 -50q0 -101 -323 -303q-142 -83 -230 -162
q91 -4 209 -43q299 -100 299 -395q0 -43 -6 -81zM48 1236q-21 23 -21 48q0 27 26 56q48 56 341 235q103 60 161 60q43 0 61 -32q9 -15 9 -32q0 -64 -139 -144l-233 -139q-102 -62 -163 -62q-24 0 -42 10z" />
    <glyph glyph-name="uFB95" unicode="&#x6af;" horiz-adv-x="897" arabic-form="medial" 
d="M779 359q24 -90 93 -90h45v-269h-25q-104 6 -206 105l-28 31q-60 -49 -149 -77q-231 -59 -447 -59h-76v269h201q315 36 331 141v12q0 105 -284 179q-173 44 -205 105q-44 76 -44 150q0 61 31 122q67 132 346 294q268 171 359 171q67 0 96 -50q13 -24 13 -50
q0 -101 -323 -303q-142 -83 -230 -162q91 -4 209 -43q299 -100 299 -395q0 -43 -6 -81zM48 1236q-21 23 -21 48q0 27 26 56q48 56 341 235q103 60 161 60q43 0 61 -32q9 -15 9 -32q0 -64 -139 -144l-233 -139q-102 -62 -163 -62q-24 0 -42 10z" />
    <glyph glyph-name="u0644" unicode="&#x644;" horiz-adv-x="1252" arabic-form="isolated" 
d="M401 104q-1 -13 -1 -37q0 -33 2 -84q1 -204 254 -204q250 0 250 274v1094q0 219 145 219q140 -1 140 -177v-1154q-26 -336 -155 -405q-157 -120 -370 -120q-225 0 -383 105.5t-158 366.5v118q7 238 81 318q89 124 208 153q43 9 79 9q83 0 133 -47q54 -49 54 -107
q0 -21 -8 -43q-26 -83 -124 -83q-130 0 -147 -196z" />
    <glyph glyph-name="uFEDE" unicode="&#x644;" horiz-adv-x="1356" arabic-form="final" 
d="M401 104q-1 -13 -1 -37q0 -33 2 -84q1 -204 254 -204q250 0 250 274v1094q0 219 145 219q141 -1 141 -177v-788q7 -132 172 -132h14v-268l-20 -1q-68 0 -113.5 27.5t-46.5 27.5q-19 -314 -162 -425q-157 -120 -370 -120q-225 0 -383 105.5t-158 366.5v118q7 238 81 318
q89 124 208 153q43 9 79 9q83 0 133 -47q54 -49 54 -107q0 -21 -8 -43q-26 -83 -124 -83q-130 0 -147 -196z" />
    <glyph glyph-name="uFEDF" unicode="&#x644;" horiz-adv-x="587" arabic-form="initial" 
d="M-20 269h9q273 0 273 251v678q0 168 143 168q132 0 132 -169v-686q0 -277 -157 -391q-167 -120 -378 -120h-22v269z" />
    <glyph glyph-name="uFEE0" unicode="&#x644;" horiz-adv-x="740" arabic-form="medial" 
d="M570 557q9 -287 139 -288h53v-269h-53q-169 1 -274 138q-11 -9 -22 -17q-167 -120 -430 -120l-3 1v268h3q312 0 312 251l-1 677q1 168 144 168q132 0 132 -169v-640z" />
    <glyph glyph-name="u0645" unicode="&#x645;" horiz-adv-x="1367" arabic-form="isolated" 
d="M687 791q135 -23 135 -223q0 -15 -1 -31l1 -153q0 -122 108 -122q107 0 108 122v2q0 93 -64 114q-128 8 -130 129q-1 3 -1 5q0 117 108 146q31 5 60 5q129 0 220 -94q86 -105 86 -297q0 -55 -7 -116q-33 -278 -389 -278q-309 19 -352 220q-18 81 -19 171v22q0 93 -16 93
q-17 0 -50 -21q-84 -46 -84 -205v-612q0 -168 -143 -168q-132 0 -132 169v620q0 277 157 391q105 75 191 97q63 23 129 23q42 0 85 -9z" />
    <glyph glyph-name="uFEE2" unicode="&#x645;" horiz-adv-x="1441" arabic-form="final" 
d="M910 0q-298 19 -341 220q-18 81 -19 171v22q0 93 -16 93q-17 0 -50 -21q-84 -46 -84 -205v-612q0 -168 -143 -168q-132 0 -132 169v620q0 277 157 391q105 75 191 97q63 23 129 23q42 0 85 -9q134 -42 134 -248v-6l1 -153q0 -122 108 -122q107 0 108 122v2q0 93 -64 114
q-128 8 -130 129q-1 3 -1 5q0 117 108 146q31 5 60 5q129 0 220 -94q85 -104 85 -207v-2q-1 -104 -2 -122v-6q0 -15 4 -31q24 -54 117 -54h28v-269h-61q-134 3 -195 81q-56 -43 -146 -62t-151 -19z" />
    <glyph glyph-name="uFEE3" unicode="&#x645;" horiz-adv-x="961" arabic-form="initial" 
d="M647 420v2q-1 122 -108 122q-108 0 -108 -122l-1 -153q-23 -269 -234 -269h-216v269h90q90 0 90 110q0 126 18 207q43 201 352 220h3q353 0 386 -278q7 -61 7 -116q0 -192 -86 -297q-91 -94 -220 -94q-29 0 -60 5q-108 29 -108 146q0 2 1 5q2 121 130 129q64 21 64 114z
" />
    <glyph glyph-name="uFEE4" unicode="&#x645;" horiz-adv-x="1050" arabic-form="medial" 
d="M915 340q-2 -9 -4 -17q24 -54 117 -54h28v-269h-61q-134 3 -195 81q-56 -43 -125 -55q-28 -5 -57 -5t-60 5q-108 29 -108 146q0 2 1 5q2 121 130 129q64 21 64 114v2q-1 122 -108 122q-108 0 -108 -122l-1 -153q-23 -269 -234 -269h-216v269h90q90 0 90 110q0 126 18 207
q43 201 352 220h3q353 0 386 -278q7 -49 7 -93q0 -50 -9 -95z" />
    <glyph glyph-name="u0646" unicode="&#x646;" horiz-adv-x="1342" arabic-form="isolated" 
d="M401 104q-1 -11 -1 -33q0 -32 2 -88q1 -204 304 -204q290 0 290 257v545q0 219 145 219q151 -1 151 -177v-222q-1 -132 -1 -185q0 -54 -1 -117.5t-2 -63.5q-19 -294 -162 -405q-147 -120 -410 -120q-275 0 -433 105.5t-158 366.5v118q7 238 81 318q89 124 208 153
q43 9 79 9q83 0 133 -47q54 -49 54 -107q0 -21 -8 -43q-26 -83 -124 -83q-130 0 -147 -196zM609 767q0 129 136 129q135 0 135 -129q0 -128 -135 -128q-136 0 -136 128z" />
    <glyph glyph-name="uFEE6" unicode="&#x646;" horiz-adv-x="1436" arabic-form="final" 
d="M401 104q-1 -11 -1 -33q0 -32 2 -88q1 -204 304 -204q290 0 290 257v545q0 219 145 219q151 -1 151 -177v-222q7 -132 166 -132v-269h-10q-110 0 -134.5 17.5t-25.5 17.5q-19 -294 -162 -405q-147 -120 -410 -120q-275 0 -433 105.5t-158 366.5v118q7 238 81 318
q89 124 208 153q43 9 79 9q83 0 133 -47q54 -49 54 -107q0 -21 -8 -43q-26 -83 -124 -83q-130 0 -147 -196zM609 767q0 129 136 129q135 0 135 -129q0 -128 -135 -128q-136 0 -136 128z" />
    <glyph glyph-name="uFEE7" unicode="&#x646;" horiz-adv-x="642" arabic-form="initial" 
d="M-20 269h39q313 0 313 251v112q0 168 143 168q132 0 132 -169v-120q0 -277 -157 -391q-167 -120 -418 -120h-52v269zM88 1018q0 129 136 129q135 0 135 -129q0 -128 -135 -128q-136 0 -136 128z" />
    <glyph glyph-name="uFEE8" unicode="&#x646;" horiz-adv-x="773" arabic-form="medial" 
d="M627 557q9 -287 139 -288h13v-269h-13q-169 1 -274 138q-11 -9 -22 -17q-167 -120 -470 -120l-20 1v268h20q352 0 352 251l-1 112q1 168 144 168q132 0 132 -169v-75zM88 1018q0 129 136 129q135 0 135 -129q0 -128 -135 -128q-136 0 -136 128z" />
    <glyph glyph-name="u0648" unicode="&#x648;" horiz-adv-x="941" arabic-form="isolated" 
d="M862 55q-46 -212 -152 -331.5t-269 -173.5q-43 -9 -79 -9q-83 0 -133 47q-54 49 -54 107q0 21 8 43q27 63 124 83q170 28 221 89q110 109 120 283q1 28 1 55q0 134 -40 217q-23 57 -97 57q-107 0 -108 -122v-2q0 -93 64 -114q128 -8 130 -129q1 -3 1 -5q0 -117 -108 -146
q-31 -5 -60 -5q-129 0 -220 94q-86 105 -86 297q0 55 7 116q33 278 386 278h3q262 -16 333 -163q24 -41 29 -111v-6q8 -64 8 -147q-3 -194 -29 -302z" />
    <glyph glyph-name="uFEEE" unicode="&#x648;" horiz-adv-x="1000" arabic-form="final" 
d="M863 60q0 -2 -1 -5q-46 -212 -152 -331.5t-269 -173.5q-43 -9 -79 -9q-83 0 -133 47q-54 49 -54 107q0 21 8 43q27 63 124 83q170 28 221 89q110 109 120 283q1 28 1 55q0 134 -40 217q-23 57 -97 57q-107 0 -108 -122v-2q0 -93 64 -114q128 -8 130 -129q1 -3 1 -5
q0 -117 -108 -146q-31 -5 -60 -5q-129 0 -220 94q-86 105 -86 297q0 55 7 116q33 278 386 278h3q262 -16 333 -163q38 -96 38 -214q0 -21 -1 -43q14 -95 116 -95h15v-269h-4q-70 3 -155 60z" />
    <glyph glyph-name="u0647" unicode="&#x647;" horiz-adv-x="869" arabic-form="isolated" 
d="M386 891q8 1 17 1q91 0 239 -160q157 -168 176 -354q1 -19 1 -37q0 -161 -149 -273q-101 -68 -200 -68q-288 0 -332 236q-13 71 -13 131q0 139 72 217q102 112 142 113q-45 41 -47 73q0 103 94 121zM367 329q32 -81 91 -81q11 0 23 3q76 18 90 97q1 8 1 16q0 73 -109 157
q-104 -74 -104 -149q0 -22 8 -43z" />
    <glyph glyph-name="uFEEA" unicode="&#x647;" horiz-adv-x="1042" arabic-form="final" 
d="M1062 0h-78q-332 -2 -364 319v103q0 122 -108 122q-107 0 -108 -122v-2q0 -13 1 -25q8 -71 63 -89q130 0 130 -129q1 -3 1 -5q0 -117 -108 -146q-31 -5 -60 -5q-129 0 -220 94q-76 93 -85 256q-1 20 -1 41q0 55 7 116q33 278 386 278h3q57 -4 105 -13v13q4 204 147 204h2
q125 -2 126 -193v-366q22 -182 142 -182h19v-269z" />
    <glyph glyph-name="uFEEB" unicode="&#x647;" horiz-adv-x="1216" arabic-form="initial" 
d="M432 269q89 9 89 146q0 11 -1 32q-11 138 -111 138q-13 0 -25 -2q-79 -9 -89 -133q-1 -21 -1 -32q0 -147 110 -149h28zM100 269q-31 62 -31 140q0 172 81 280q39 52 108 79q-10 5 -19 11q-55 29 -70 58q-24 36 -24 72q0 41 30 88q39 59 112 59q32 0 70 -10
q110 -19 481 -212q288 -142 328 -394v-4q-3 -256 -145 -350q-129 -86 -349 -86h-694v269h122zM747 270q149 9 160 112v11q0 90 -159 162q34 -64 34 -137q0 -10 -1 -20q-5 -85 -34 -128z" />
    <glyph glyph-name="uFEEC" unicode="&#x647;" horiz-adv-x="862" arabic-form="medial" 
d="M335 70q-143 -70 -334 -70h-21v269h8q313 0 313 251v42q0 168 143 168q132 0 132 -169v-50q0 -176 -63 -286q70 44 183 44h186v-269h-188q-60 0 -88 -21q-26 -21 -27 -58l1 -8q27 -80 108 -80q55 -20 82 -64q22 -29 22 -69q0 -28 -10 -61q-27 -81 -130 -100
q-11 -2 -22 -2q-137 4 -246 152q-80 116 -80 216q-4 1 -4 40q0 56 35 125z" />
    <glyph glyph-name="u0629" unicode="&#x629;" horiz-adv-x="881" arabic-form="isolated" 
d="M398 891q8 1 17 1q91 0 239 -160q157 -168 176 -354q1 -19 1 -37q0 -161 -149 -273q-101 -68 -200 -68q-288 0 -332 236q-13 71 -13 131q0 139 72 217q102 112 142 113q-45 41 -47 73q0 103 94 121zM379 329q32 -81 91 -81q11 0 23 3q76 18 90 97q1 8 1 16q0 73 -109 157
q-104 -74 -104 -149q0 -22 8 -43zM111 1136q0 129 136 129q135 0 135 -129q0 -128 -135 -128q-136 0 -136 128zM407 1135q0 129 136 129q135 0 135 -129q0 -128 -135 -128q-136 0 -136 128z" />
    <glyph glyph-name="uFE94" unicode="&#x6c0;" horiz-adv-x="1042" arabic-form="final" 
d="M1062 0h-78q-332 -2 -364 319v103q0 122 -108 122q-107 0 -108 -122v-2q0 -13 1 -25q8 -71 63 -89q130 0 130 -129q1 -3 1 -5q0 -117 -108 -146q-31 -5 -60 -5q-129 0 -220 94q-76 93 -85 256q-1 20 -1 41q0 55 7 116q33 278 386 278h3q57 -4 105 -13v13q4 204 147 204h2
q125 -2 126 -193v-366q22 -182 142 -182h19v-269zM131 1146q0 129 136 129q135 0 135 -129q0 -128 -135 -128q-136 0 -136 128zM427 1145q0 129 136 129q135 0 135 -129q0 -128 -135 -128q-136 0 -136 128z" />
    <glyph glyph-name="u064A" unicode="&#x64a;" horiz-adv-x="1472" arabic-form="isolated" 
d="M715 -13h98q23 0 57 2q115 10 186 59q61 42 80 113h-275q-232 1 -232 216q0 217 120 384q114 157 371 157h50q169 0 169 -132q0 -143 -168 -144l-42 1q-184 0 -242 -217h260q275 0 275 -197q0 -179 -66 -290q-35 -61 -91 -101q-97 -70 -199 -91q-55 -14 -126 -20h-155
q-131 0 -227 21q-102 21 -210.5 87.5t-157.5 142.5t-61 195q-4 39 -4 74q0 75 17 136l63 190q61 187 173 187q14 0 30 -3q99 -21 99 -120q0 -34 -12 -77l-74 -217q-17 -55 -17 -102q0 -168 215 -238q50 -12 96 -16zM736 -398q135 0 135 -128q0 -129 -135 -129
q-136 0 -136 129q0 128 136 128zM1032 -397q135 0 135 -128q0 -129 -135 -129q-136 0 -136 129q0 128 136 128z" />
    <glyph glyph-name="uFEF2" unicode="&#x6cc;" horiz-adv-x="1327" arabic-form="final" 
d="M129 -62q-4 39 -4 74q0 75 17 136l85 253q42 133 135 133q24 0 50 -8q97 -30 97 -122q0 -35 -14 -79l-74 -217q-17 -55 -17 -102q0 -168 215 -238q91 -18 133 -19h6q43 0 142 11l52 12q-220 203 -220 248q-8 0 -12 68q2 72 77 129q68 52 239 52h306v-269h-234
q148 -117 152 -236q0 -109 -76 -182.5t-264 -89.5h-135q-131 0 -227 21q-102 21 -210.5 87.5t-157.5 142.5t-61 195zM627 -629q135 0 135 -128q0 -129 -135 -129q-136 0 -136 129q0 128 136 128zM923 -628q135 0 135 -128q0 -129 -135 -129q-136 0 -136 129q0 128 136 128z
" />
    <glyph glyph-name="uFEF3" unicode="&#x6cc;" horiz-adv-x="703" arabic-form="initial" 
d="M-9 269h89q313 0 313 251v112q0 168 143 168q132 0 132 -169v-120q0 -277 -157 -391q-167 -120 -418 -120h-102v269zM123 -101q135 0 135 -128q0 -129 -135 -129q-136 0 -136 129q0 128 136 128zM419 -100q135 0 135 -128q0 -129 -135 -129q-136 0 -136 129
q0 128 136 128z" />
    <glyph glyph-name="uFEF4" unicode="&#x6cc;" horiz-adv-x="773" arabic-form="medial" 
d="M627 557q9 -287 139 -288h13v-269h-13q-169 1 -274 138q-11 -9 -22 -17q-167 -120 -470 -120l-20 1v268h20q352 0 352 251l-1 112q1 168 144 168q132 0 132 -169v-75zM142 -101q135 0 135 -128q0 -129 -135 -129q-136 0 -136 129q0 128 136 128zM438 -100q135 0 135 -128
q0 -129 -135 -129q-136 0 -136 129q0 128 136 128z" />
    <glyph glyph-name="u0649" unicode="&#x649;" horiz-adv-x="1472" arabic-form="isolated" 
d="M715 -13h98q23 0 57 2q115 10 186 59q61 42 80 113h-275q-232 1 -232 216q0 217 120 384q114 157 371 157h50q169 0 169 -132q0 -143 -168 -144l-42 1q-184 0 -242 -217h260q275 0 275 -197q0 -179 -66 -290q-35 -61 -91 -101q-97 -70 -199 -91q-55 -14 -126 -20h-155
q-131 0 -227 21q-102 21 -210.5 87.5t-157.5 142.5t-61 195q-4 39 -4 74q0 75 17 136l63 190q61 187 173 187q14 0 30 -3q99 -21 99 -120q0 -34 -12 -77l-74 -217q-17 -55 -17 -102q0 -168 215 -238q50 -12 96 -16z" />
    <glyph glyph-name="uFEF0" unicode="&#x649;" horiz-adv-x="1327" arabic-form="final" 
d="M129 -62q-4 39 -4 74q0 75 17 136l85 253q42 133 135 133q24 0 50 -8q97 -30 97 -122q0 -35 -14 -79l-74 -217q-17 -55 -17 -102q0 -168 215 -238q91 -18 133 -19h6q43 0 142 11l52 12q-220 203 -220 248q-8 0 -12 68q2 72 77 129q68 52 239 52h306v-269h-234
q148 -117 152 -236q0 -109 -76 -182.5t-264 -89.5h-135q-131 0 -227 21q-102 21 -210.5 87.5t-157.5 142.5t-61 195z" />
    <glyph glyph-name=".notdef" horiz-adv-x="908" 
d="M334 621q0 -352 128 -352q127 0 127 352t-127 352q-128 0 -128 -352zM873 621q0 -429 -142.5 -525t-268.5 -96q-97 0 -254.5 96t-157.5 525t152.5 525t259.5 96q116 0 263.5 -96t147.5 -525z" />
    <glyph glyph-name=".null" 
 />
    <glyph glyph-name="nonmarkingreturn" horiz-adv-x="500" 
 />
    <glyph glyph-name="space" unicode=" " horiz-adv-x="298" 
 />
    <glyph glyph-name="exclam" unicode="!" horiz-adv-x="447" 
d="M261 1238q136 0 136 -220q0 -450 -21 -549t-116 -99t-115 99t-20 549q0 220 136 220zM265 0q-118 0 -118 129q0 128 118 128t118 -128q0 -129 -118 -129z" />
    <glyph glyph-name="percent" unicode="%" horiz-adv-x="873" 
d="M675 -20q-148 0 -148 129q0 128 148 128t148 -128q0 -129 -148 -129zM221 -22q-55 0 -55 84q0 144 161 536q255 620 406 620q55 0 55 -84q0 -145 -162 -536q-257 -620 -405 -620zM273 1216q148 0 148 -128q0 -129 -148 -129t-148 129q0 128 148 128z" />
    <glyph glyph-name="parenleft" unicode="(" horiz-adv-x="720" 
d="M148 216q-23 115 -23 230t23 230q46 229 174.5 465.5t272.5 236.5q75 0 75 -66q0 -60 -63 -175q-131 -242 -176 -466q-23 -113 -23 -225t23 -225q45 -225 176 -466q63 -116 63 -176q0 -66 -75 -66q-144 0 -272.5 236.5t-174.5 466.5z" />
    <glyph glyph-name="parenright" unicode=")" horiz-adv-x="720" 
d="M472.5 -250.5q-128.5 -236.5 -272.5 -236.5q-75 0 -75 66q0 60 63 176q131 241 176 466q23 113 23 225t-23 225q-45 224 -176 466q-63 115 -63 175q0 66 75 66q144 0 272.5 -236.5t174.5 -465.5q23 -115 23 -230t-23 -230q-46 -230 -174.5 -466.5z" />
    <glyph glyph-name="asterisk" unicode="*" horiz-adv-x="905" 
d="M592 394q0 -116 -102 -116t-102 115q-45 -45 -86 -45q-35 0 -68 33t-33 68q0 43 49 91q-125 0 -125 99q0 98 124 98q-48 48 -48 91q0 36 33 68q33 33 68 33q41 0 86 -46q0 117 102 117t102 -117q46 45 88 45q35 0 67 -32q33 -32 33 -68q0 -43 -48 -91q123 0 123 -98
q0 -99 -124 -99q48 -48 48 -90q0 -35 -32 -68q-33 -33 -69 -33q-41 0 -86 45z" />
    <glyph glyph-name="plus" unicode="+" horiz-adv-x="1164" 
d="M936 362q-24 3 -46 3q-68 0 -102 -34t-34 -102q0 -22 3 -46q0 -102 -44 -146q-34 -34 -93 -34t-93 34q-44 44 -44 146q3 24 3 46q0 68 -34 102t-102 34q-22 0 -46 -3h-4q-98 0 -142 44q-33 33 -33 92q0 60 34 94q44 44 145 44q27 -4 50 -4q72 0 108 36q36 37 36 111
q0 10 -1 22q-1 19 -1 36q0 88 38 126q31 30 86 30q59 0 93 -34q44 -43 44 -144q-5 -30 -5 -55q0 -66 32 -98q32 -31 95 -31q25 0 56 5q101 0 145 -44q34 -34 34 -93t-34 -93q-44 -44 -144 -44z" />
    <glyph glyph-name="comma" unicode="," horiz-adv-x="584" 
d="M209 165q51 81 123 81q37 0 80 -21l4 -2q118 -61 118 -173q0 -10 -1 -21q-8 -105 -77 -243q-14 -29 -32 -59q-57 -100 -131 -100q-30 0 -63 16q-29 14 -58 40q-47 45 -47 86q0 18 9 36q29 56 145 107q42 23 51 42q2 5 2 9q0 12 -17 21q-14 7 -41 13q-21 6 -37 14
q-56 28 -56 76q0 26 16 57q5 11 12 21z" />
    <glyph glyph-name="hyphen" unicode="-" horiz-adv-x="960" 
d="M125 311q0 134 393 134q392 0 392 -134q0 -135 -392 -135q-393 0 -393 135z" />
    <glyph glyph-name="period" unicode="." horiz-adv-x="471" 
d="M273 0q-148 0 -148 129q0 128 148 128t148 -128q0 -129 -148 -129z" />
    <glyph glyph-name="slash" unicode="/" horiz-adv-x="659" 
d="M541 1240q68 0 68 -132q0 -154 -92 -488q-173 -620 -322 -620q-70 0 -70 132q0 155 94 488q174 620 322 620z" />
    <glyph glyph-name="zero" unicode="0" horiz-adv-x="799" 
d="M125 516q0 133 58.5 221.5t227.5 88.5h49q172 -2 230.5 -87t58.5 -205q0 -50 -8 -106q-26 -185 -275 -197q-28 -2 -52 -2q-121 0 -205 77.5t-84 209.5zM364 527q0 -77 73 -77q74 0 74 77t-74 77q-73 0 -73 -77z" />
    <glyph glyph-name="zero" unicode="&#x6f0;" horiz-adv-x="799" 
d="M125 516q0 133 58.5 221.5t227.5 88.5h49q172 -2 230.5 -87t58.5 -205q0 -50 -8 -106q-26 -185 -275 -197q-28 -2 -52 -2q-121 0 -205 77.5t-84 209.5zM364 527q0 -77 73 -77q74 0 74 77t-74 77q-73 0 -73 -77z" />
    <glyph glyph-name="zero" unicode="&#x660;" horiz-adv-x="799" 
d="M125 516q0 133 58.5 221.5t227.5 88.5h49q172 -2 230.5 -87t58.5 -205q0 -50 -8 -106q-26 -185 -275 -197q-28 -2 -52 -2q-121 0 -205 77.5t-84 209.5zM364 527q0 -77 73 -77q74 0 74 77t-74 77q-73 0 -73 -77z" />
    <glyph glyph-name="one" unicode="1" horiz-adv-x="572" 
d="M516 346q5 -110 5 -188q-2 -158 -92 -158q-20 0 -44 8q-120 38 -138 402q-2 45 -3 95q-6 454 -89 584q-30 47 -30 77q0 52 92 52q145 0 225 -124.5t80 -296.5q-4 -240 -8 -400z" />
    <glyph glyph-name="one" unicode="&#x6f1;" horiz-adv-x="572" 
d="M516 346q5 -110 5 -188q-2 -158 -92 -158q-20 0 -44 8q-120 38 -138 402q-2 45 -3 95q-6 454 -89 584q-30 47 -30 77q0 52 92 52q145 0 225 -124.5t80 -296.5q-4 -240 -8 -400z" />
    <glyph glyph-name="one" unicode="&#x661;" horiz-adv-x="572" 
d="M516 346q5 -110 5 -188q-2 -158 -92 -158q-20 0 -44 8q-120 38 -138 402q-2 45 -3 95q-6 454 -89 584q-30 47 -30 77q0 52 92 52q145 0 225 -124.5t80 -296.5q-4 -240 -8 -400z" />
    <glyph glyph-name="two" unicode="2" horiz-adv-x="1016" 
d="M516 346q5 -110 5 -188q-2 -158 -92 -158q-20 0 -44 8q-120 38 -138 402q-2 45 -3 95q-6 454 -89 584q-30 47 -30 77q0 52 92 52q145 0 225 -124.5t80 -296.5q10 -173 90 -173q77 0 77 99q0 30 -7 69q0 167 -83 297q-30 47 -30 77q0 52 92 52q145 0 225 -124.5t80 -433.5
q-46 -316 -272 -316q-24 0 -51 4q-80 0 -129 49z" />
    <glyph glyph-name="two" unicode="&#x6f2;" horiz-adv-x="1016" 
d="M516 346q5 -110 5 -188q-2 -158 -92 -158q-20 0 -44 8q-120 38 -138 402q-2 45 -3 95q-6 454 -89 584q-30 47 -30 77q0 52 92 52q145 0 225 -124.5t80 -296.5q10 -173 90 -173q77 0 77 99q0 30 -7 69q0 167 -83 297q-30 47 -30 77q0 52 92 52q145 0 225 -124.5t80 -433.5
q-46 -316 -272 -316q-24 0 -51 4q-80 0 -129 49z" />
    <glyph glyph-name="two" unicode="&#x662;" horiz-adv-x="1016" 
d="M516 346q5 -110 5 -188q-2 -158 -92 -158q-20 0 -44 8q-120 38 -138 402q-2 45 -3 95q-6 454 -89 584q-30 47 -30 77q0 52 92 52q145 0 225 -124.5t80 -296.5q10 -173 90 -173q77 0 77 99q0 30 -7 69q0 167 -83 297q-30 47 -30 77q0 52 92 52q145 0 225 -124.5t80 -433.5
q-46 -316 -272 -316q-24 0 -51 4q-80 0 -129 49z" />
    <glyph glyph-name="three" unicode="3" horiz-adv-x="1447" 
d="M246 453v27q-8 479 -91 609q-30 47 -30 77q0 52 92 52q145 0 225 -124.5t80 -296.5q0 -173 90 -173q80 0 80 168q0 167 -83 297q-30 47 -30 77q0 52 92 52q145 0 225 -124.5t80 -296.5q0 -173 71 -175q67 2 67 133q0 17 -1 37q0 167 -83 297q-30 47 -30 77q0 52 92 52
q145 0 225 -124.5t65 -415.5t-269 -305q-26 -2 -50 -2q-185 0 -216 79q-57 -80 -170 -80q-106 0 -160 13l2 -60q4 -95 4 -165q-2 -158 -92 -158q-20 0 -44 8q-120 38 -138 402z" />
    <glyph glyph-name="three" unicode="&#x6f3;" horiz-adv-x="1447" 
d="M246 453v27q-8 479 -91 609q-30 47 -30 77q0 52 92 52q145 0 225 -124.5t80 -296.5q0 -173 90 -173q80 0 80 168q0 167 -83 297q-30 47 -30 77q0 52 92 52q145 0 225 -124.5t80 -296.5q0 -173 71 -175q67 2 67 133q0 17 -1 37q0 167 -83 297q-30 47 -30 77q0 52 92 52
q145 0 225 -124.5t65 -415.5t-269 -305q-26 -2 -50 -2q-185 0 -216 79q-57 -80 -170 -80q-106 0 -160 13l2 -60q4 -95 4 -165q-2 -158 -92 -158q-20 0 -44 8q-120 38 -138 402z" />
    <glyph glyph-name="three" unicode="&#x663;" horiz-adv-x="1447" 
d="M246 453v27q-8 479 -91 609q-30 47 -30 77q0 52 92 52q145 0 225 -124.5t80 -296.5q0 -173 90 -173q80 0 80 168q0 167 -83 297q-30 47 -30 77q0 52 92 52q145 0 225 -124.5t80 -296.5q0 -173 71 -175q67 2 67 133q0 17 -1 37q0 167 -83 297q-30 47 -30 77q0 52 92 52
q145 0 225 -124.5t65 -415.5t-269 -305q-26 -2 -50 -2q-185 0 -216 79q-57 -80 -170 -80q-106 0 -160 13l2 -60q4 -95 4 -165q-2 -158 -92 -158q-20 0 -44 8q-120 38 -138 402z" />
    <glyph glyph-name="four" unicode="4" horiz-adv-x="1317" 
d="M255 306q-17 103 -17 243q0 410 -83 540q-30 47 -30 77q0 52 92 52q145 0 225 -124.5t80 -301.5q0 -178 110 -178q0 345 78 454q67 94 256 94q28 0 57 -1q236 -16 236 -155q0 -110 -105 -110q-29 0 -66 9q-34 8 -61 8q-111 0 -111 -129q0 -160 176 -160q175 0 175 -137
t-218 -164q-63 -8 -135 -8q-174 0 -395 47l3 -180h-1v-24q-2 -158 -92 -158q-20 0 -44 8q-102 32 -130 298z" />
    <glyph glyph-name="four" unicode="&#x6f4;" horiz-adv-x="1317" 
d="M255 306q-17 103 -17 243q0 410 -83 540q-30 47 -30 77q0 52 92 52q145 0 225 -124.5t80 -301.5q0 -178 110 -178q0 345 78 454q67 94 256 94q28 0 57 -1q236 -16 236 -155q0 -110 -105 -110q-29 0 -66 9q-34 8 -61 8q-111 0 -111 -129q0 -160 176 -160q175 0 175 -137
t-218 -164q-63 -8 -135 -8q-174 0 -395 47l3 -180h-1v-24q-2 -158 -92 -158q-20 0 -44 8q-102 32 -130 298z" />
    <glyph glyph-name="four" unicode="&#x664;" horiz-adv-x="1317" 
d="M255 306q-17 103 -17 243q0 410 -83 540q-30 47 -30 77q0 52 92 52q145 0 225 -124.5t80 -301.5q0 -178 110 -178q0 345 78 454q67 94 256 94q28 0 57 -1q236 -16 236 -155q0 -110 -105 -110q-29 0 -66 9q-34 8 -61 8q-111 0 -111 -129q0 -160 176 -160q175 0 175 -137
t-218 -164q-63 -8 -135 -8q-174 0 -395 47l3 -180h-1v-24q-2 -158 -92 -158q-20 0 -44 8q-102 32 -130 298z" />
    <glyph glyph-name="five" unicode="5" horiz-adv-x="1267" 
d="M668 902q-297 -185 -302 -428v-6q8 -183 93 -188h8q86 0 86 107q0 28 -6 63q-5 29 -5 54q0 121 118 121t118 -116q0 -24 -5 -53q-7 -39 -7 -79q0 -94 78 -94h8q78 4 78 178q0 52 -8 121q-16 127 -159 240zM505 1083l-2 2q-39 38 -39 95q0 34 26 69q37 30 89 30
q37 0 82 -15q108 -37 203 -127q313 -236 352 -592q1 -18 1 -35q0 -28 -3 -55q-14 -279 -113 -366t-227 -89h-4q-158 2 -210 107q-69 -106 -217 -106h-3q-88 0 -190 77q-125 94 -125 414q11 229 157 394q119 135 223 197z" />
    <glyph glyph-name="five" unicode="&#x6f5;" horiz-adv-x="1267" 
d="M668 902q-297 -185 -302 -428v-6q8 -183 93 -188h8q86 0 86 107q0 28 -6 63q-5 29 -5 54q0 121 118 121t118 -116q0 -24 -5 -53q-7 -39 -7 -79q0 -94 78 -94h8q78 4 78 178q0 52 -8 121q-16 127 -159 240zM505 1083l-2 2q-39 38 -39 95q0 34 26 69q37 30 89 30
q37 0 82 -15q108 -37 203 -127q313 -236 352 -592q1 -18 1 -35q0 -28 -3 -55q-14 -279 -113 -366t-227 -89h-4q-158 2 -210 107q-69 -106 -217 -106h-3q-88 0 -190 77q-125 94 -125 414q11 229 157 394q119 135 223 197z" />
    <glyph glyph-name="five" unicode="&#x665;" horiz-adv-x="1267" 
d="M668 902q-297 -185 -302 -428v-6q8 -183 93 -188h8q86 0 86 107q0 28 -6 63q-5 29 -5 54q0 121 118 121t118 -116q0 -24 -5 -53q-7 -39 -7 -79q0 -94 78 -94h8q78 4 78 178q0 52 -8 121q-16 127 -159 240zM505 1083l-2 2q-39 38 -39 95q0 34 26 69q37 30 89 30
q37 0 82 -15q108 -37 203 -127q313 -236 352 -592q1 -18 1 -35q0 -28 -3 -55q-14 -279 -113 -366t-227 -89h-4q-158 2 -210 107q-69 -106 -217 -106h-3q-88 0 -190 77q-125 94 -125 414q11 229 157 394q119 135 223 197z" />
    <glyph glyph-name="six" unicode="6" horiz-adv-x="972" 
d="M506 993q-52 -17 -77 -54t-25 -82v-32q5 -131 250 -131q244 0 244 -129t-220 -478q-27 -49 -86 -74q-28 -12 -54 -12q-30 0 -57 16q-51 28 -55 88q-1 9 -1 17q0 47 19 75l126 223q-445 0 -445 385q0 126 40 217q46 105 138 165q85 67 199 74v1q37 3 71 3q142 0 233 -60
q102 -82 115 -210q1 -14 1 -29t-1 -31q-18 -111 -135 -122q-2 0 -5 1q-9 -1 -17 -1q-105 0 -124 118q-21 65 -98 65q-17 0 -36 -3z" />
    <glyph glyph-name="six" unicode="&#x6f6;" horiz-adv-x="972" 
d="M506 993q-52 -17 -77 -54t-25 -82v-32q5 -131 250 -131q244 0 244 -129t-220 -478q-27 -49 -86 -74q-28 -12 -54 -12q-30 0 -57 16q-51 28 -55 88q-1 9 -1 17q0 47 19 75l126 223q-445 0 -445 385q0 126 40 217q46 105 138 165q85 67 199 74v1q37 3 71 3q142 0 233 -60
q102 -82 115 -210q1 -14 1 -29t-1 -31q-18 -111 -135 -122q-2 0 -5 1q-9 -1 -17 -1q-105 0 -124 118q-21 65 -98 65q-17 0 -36 -3z" />
    <glyph glyph-name="six" unicode="&#x666;" horiz-adv-x="972" 
d="M506 993q-52 -17 -77 -54t-25 -82v-32q5 -131 250 -131q244 0 244 -129t-220 -478q-27 -49 -86 -74q-28 -12 -54 -12q-30 0 -57 16q-51 28 -55 88q-1 9 -1 17q0 47 19 75l126 223q-445 0 -445 385q0 126 40 217q46 105 138 165q85 67 199 74v1q37 3 71 3q142 0 233 -60
q102 -82 115 -210q1 -14 1 -29t-1 -31q-18 -111 -135 -122q-2 0 -5 1q-9 -1 -17 -1q-105 0 -124 118q-21 65 -98 65q-17 0 -36 -3z" />
    <glyph glyph-name="seven" unicode="7" horiz-adv-x="1074" 
d="M574 453l142 531q61 214 193 214h13q102 -9 102 -120q0 -43 -15 -102l-205 -753q-55 -223 -193 -223h-76q-135 0 -190 223l-205 752q-15 59 -15 102q0 112 102 120l2 1h11q132 0 193 -214z" />
    <glyph glyph-name="seven" unicode="&#x6f7;" horiz-adv-x="1074" 
d="M574 453l142 531q61 214 193 214h13q102 -9 102 -120q0 -43 -15 -102l-205 -753q-55 -223 -193 -223h-76q-135 0 -190 223l-205 752q-15 59 -15 102q0 112 102 120l2 1h11q132 0 193 -214z" />
    <glyph glyph-name="seven" unicode="&#x667;" horiz-adv-x="1074" 
d="M574 453l142 531q61 214 193 214h13q102 -9 102 -120q0 -43 -15 -102l-205 -753q-55 -223 -193 -223h-76q-135 0 -190 223l-205 752q-15 59 -15 102q0 112 102 120l2 1h11q132 0 193 -214z" />
    <glyph glyph-name="eight" unicode="8" horiz-adv-x="1074" 
d="M433 214q-61 -214 -193 -214h-11l-2 1q-102 8 -102 120q0 43 15 102l205 752q55 223 190 223h76q138 0 193 -223l205 -753q15 -59 15 -102q0 -111 -102 -120h-13q-132 0 -193 214l-142 531z" />
    <glyph glyph-name="eight" unicode="&#x6f8;" horiz-adv-x="1074" 
d="M433 214q-61 -214 -193 -214h-11l-2 1q-102 8 -102 120q0 43 15 102l205 752q55 223 190 223h76q138 0 193 -223l205 -753q15 -59 15 -102q0 -111 -102 -120h-13q-132 0 -193 214l-142 531z" />
    <glyph glyph-name="eight" unicode="&#x668;" horiz-adv-x="1074" 
d="M433 214q-61 -214 -193 -214h-11l-2 1q-102 8 -102 120q0 43 15 102l205 752q55 223 190 223h76q138 0 193 -223l205 -753q15 -59 15 -102q0 -111 -102 -120h-13q-132 0 -193 214l-142 531z" />
    <glyph glyph-name="nine" unicode="9" horiz-adv-x="989" 
d="M525 1015q-115 0 -128 -160q-1 -14 -1 -27q0 -134 126 -134q138 0 140 168q-16 153 -137 153zM665 442q-49 -25 -127 -25h-16q-131 0 -211 49q-186 113 -186 338q0 215 94 349.5t335 140.5l39 -6q185 -20 270 -159q76 -125 76 -486q0 -42 -1 -88l-2 -384v-5
q0 -166 -144 -166q-126 0 -129 173z" />
    <glyph glyph-name="nine" unicode="&#x6f9;" horiz-adv-x="989" 
d="M525 1015q-115 0 -128 -160q-1 -14 -1 -27q0 -134 126 -134q138 0 140 168q-16 153 -137 153zM665 442q-49 -25 -127 -25h-16q-131 0 -211 49q-186 113 -186 338q0 215 94 349.5t335 140.5l39 -6q185 -20 270 -159q76 -125 76 -486q0 -42 -1 -88l-2 -384v-5
q0 -166 -144 -166q-126 0 -129 173z" />
    <glyph glyph-name="nine" unicode="&#x669;" horiz-adv-x="989" 
d="M525 1015q-115 0 -128 -160q-1 -14 -1 -27q0 -134 126 -134q138 0 140 168q-16 153 -137 153zM665 442q-49 -25 -127 -25h-16q-131 0 -211 49q-186 113 -186 338q0 215 94 349.5t335 140.5l39 -6q185 -20 270 -159q76 -125 76 -486q0 -42 -1 -88l-2 -384v-5
q0 -166 -144 -166q-126 0 -129 173z" />
    <glyph glyph-name="colon" unicode=":" horiz-adv-x="521" 
d="M278 93q-153 0 -153 129q0 128 153 128q173 0 173 -128q0 -129 -173 -129zM278 450q-153 0 -153 129q0 128 153 128q173 0 173 -128q0 -129 -173 -129z" />
    <glyph glyph-name="equal" unicode="=" horiz-adv-x="1010" 
d="M125 135q0 134 418 134q417 0 417 -134q0 -135 -417 -135q-418 0 -418 135zM125 495q0 134 418 134q417 0 417 -134q0 -135 -417 -135q-418 0 -418 135z" />
    <glyph glyph-name="bracketleft" unicode="[" horiz-adv-x="765" 
d="M559 -207q156 0 156 -137t-199 -137q-198 0 -294.5 158t-96.5 869t96.5 869t294.5 158q199 0 199 -137t-156 -137q-155 0 -155 -753t155 -753z" />
    <glyph glyph-name="bracketright" unicode="]" horiz-adv-x="765" 
d="M436 546q0 753 -155 753q-156 0 -156 137t199 137q198 0 294.5 -158t96.5 -869t-96.5 -869t-294.5 -158q-199 0 -199 137t156 137q155 0 155 753z" />
    <glyph glyph-name="braceleft" unicode="{" horiz-adv-x="816" 
d="M514 848q0 -189 -62 -277q-39 -58 -39 -115t39 -114q79 -115 79 -362q0 -220 47 -220q6 0 12 3q11 5 23 5q53 0 125 -112q28 -43 28 -72q0 -65 -133 -65q-193 0 -289.5 58t-96.5 349t-82 411q-40 59 -40 119t40 120q82 119 82 440t96.5 379t289.5 58q133 0 133 -65
q0 -29 -28 -72q-71 -111 -138 -111q-16 0 -32 7q-9 3 -16 3q-48 0 -48 -145q0 -45 4 -105q6 -63 6 -117z" />
    <glyph glyph-name="braceright" unicode="}" horiz-adv-x="816" 
d="M383 965q4 60 4 105q0 145 -48 145q-7 0 -16 -3q-16 -7 -32 -7q-67 0 -138 111q-28 43 -28 72q0 65 133 65q193 0 289.5 -58t96.5 -379t82 -440q40 -60 40 -120t-40 -119q-82 -120 -82 -411t-96.5 -349t-289.5 -58q-133 0 -133 65q0 29 28 72q72 112 125 112q12 0 23 -5
q6 -3 12 -3q47 0 47 220q0 247 79 362q39 57 39 114t-39 115q-62 88 -62 277q0 54 6 117z" />
    <glyph glyph-name="guillemotleft" unicode="&#xab;" horiz-adv-x="1076" 
d="M623 24q0 -44 -63 -44q-143 0 -338 230q-97 115 -97 228q0 115 98 229q196 226 338 226q63 0 63 -43q0 -56 -105 -184q-92 -114 -92 -228t92 -228q104 -130 104 -186zM1025 24q0 -44 -63 -44q-143 0 -338 230q-97 114 -97 228t98 228q196 226 338 226q63 0 63 -43
q0 -56 -105 -183q-92 -114 -92 -228t92 -228q104 -130 104 -186z" />
    <glyph glyph-name="guillemotright" unicode="&#xbb;" horiz-adv-x="1076" 
d="M632 210q92 114 92 228t-92 228q-105 128 -105 184q0 43 63 43q142 0 338 -226q98 -114 98 -229q0 -113 -97 -228q-195 -230 -338 -230q-63 0 -63 44q0 56 104 186zM230 210q92 114 92 228t-92 228q-105 127 -105 183q0 43 63 43q142 0 338 -226q98 -114 98 -228
t-97 -228q-195 -230 -338 -230q-63 0 -63 44q0 56 104 186z" />
    <glyph glyph-name="multiply" unicode="&#xd7;" horiz-adv-x="959" 
d="M644 95q-63 83 -127 83q-63 0 -126 -83q-72 -72 -134 -72q-48 0 -90 42t-42 90q0 62 72 134q83 63 83 126q0 64 -83 127q-72 71 -72 134q0 47 42 89t90 42q62 0 134 -71q67 -89 134 -89q59 0 119 69q76 88 141 88q43 0 82 -39q42 -42 42 -90q0 -62 -71 -133
q-89 -64 -89 -127t88 -126q71 -71 71 -133q0 -48 -41 -90q-42 -42 -90 -42q-62 0 -133 71z" />
    <glyph glyph-name="divide" unicode="&#xf7;" horiz-adv-x="1010" 
d="M524 -20q-148 0 -148 129q0 128 148 128t148 -128q0 -129 -148 -129zM524 890q148 0 148 -128q0 -129 -148 -129t-148 129q0 128 148 128zM125 436q0 134 418 134q417 0 417 -134q0 -135 -417 -135q-418 0 -418 135z" />
    <glyph glyph-name="zeronojoin" unicode="&#x200c;" horiz-adv-x="95" 
d="M95 -20h-95v1468h95v-1468z" />
    <glyph glyph-name="zerojoin" unicode="&#x200d;" horiz-adv-x="93" 
d="M217 1296l-62 -62l-60 60v-1314h-95v1313l-59 -59l-62 62l107 107l-107 107l62 62l107 -107l107 107l62 -62l-107 -107z" />
    <glyph glyph-name="lefttoright" unicode="&#x200e;" horiz-adv-x="34" 
d="M224 1190l-100 -102l-25 22l66 65h-131v-1175h-34v1207h160l-61 61l25 23z" />
    <glyph glyph-name="righttoleft" unicode="&#x200f;" horiz-adv-x="34" 
d="M34 0h-34v1175h-131l63 -65l-21 -22l-103 102l103 101l21 -23l-61 -61h163v-1207z" />
    <glyph glyph-name="quoteleft" unicode="&#x2018;" horiz-adv-x="449" 
d="M209 937q-109 0 -109 107q0 108 58 223.5t169 115.5q72 0 72 -50q0 -28 -21 -70q-60 -119 -60 -223q0 -103 -109 -103z" />
    <glyph glyph-name="quoteright" unicode="&#x2019;" horiz-adv-x="449" 
d="M290 1383q109 0 109 -107q0 -108 -58 -223.5t-169 -115.5q-72 0 -72 50q0 28 21 70q60 119 60 223q0 103 109 103z" />
    <glyph glyph-name="quotedblleft" unicode="&#x201c;" horiz-adv-x="690" 
d="M199 993q-99 0 -99 107q0 108 58 223.5t159 115.5q63 0 63 -47q0 -28 -22 -73q-60 -119 -60 -223q0 -103 -99 -103zM459 993q-99 0 -99 107q0 108 58 223.5t159 115.5q63 0 63 -47q0 -28 -22 -73q-60 -119 -60 -223q0 -103 -99 -103z" />
    <glyph glyph-name="quotedblright" unicode="&#x201d;" horiz-adv-x="690" 
d="M541 1439q99 0 99 -107q0 -108 -58 -223.5t-159 -115.5q-63 0 -63 47q0 28 22 73q60 119 60 223q0 103 99 103zM281 1439q99 0 99 -107q0 -108 -58 -223.5t-159 -115.5q-63 0 -63 47q0 28 22 73q60 119 60 223q0 103 99 103z" />
    <glyph glyph-name="guilsinglleft" unicode="&#x2039;" horiz-adv-x="719" 
d="M645 941q0 -155 -129 -259q-78 -62 -78 -125q0 -61 76 -123q152 -124 155 -292v-11q0 -131 -65 -131q-13 0 -28 5q-96 32 -343 293q-108 115 -108 242q0 160 173 340q193 199 278 199q53 0 64 -75q5 -32 5 -63z" />
    <glyph glyph-name="guilsinglright" unicode="&#x203a;" horiz-adv-x="719" 
d="M154 1004q11 75 64 75q85 0 278 -199q173 -180 173 -340q0 -127 -108 -242q-247 -261 -343 -293q-15 -5 -28 -5q-65 0 -65 131v11q3 168 155 292q76 62 76 123q0 63 -78 125q-129 104 -129 259q0 31 5 63z" />
    <glyph glyph-name="u060C" unicode="&#x60c;" horiz-adv-x="625" 
d="M513 120q-27 -136 -160 -123h-3q-137 16 -171 132q-29 95 -15 243q3 30 9 62q22 153 143 141q31 -3 65 -16q81 -33 75 -95q-6 -59 -91 -144q-30 -35 -32 -55q-2 -19 24 -22q15 -1 40 3q22 2 39 0q89 -8 80 -103q-1 -12 -3 -23z" />
    <glyph glyph-name="u061B" unicode="&#x61b;" horiz-adv-x="592" 
d="M541 452q-14 -145 -155 -145h-4q-145 2 -192 121q-40 97 -40 252q0 32 2 67q8 162 136 162q32 0 70 -10q88 -27 88 -92q0 -63 -81 -160q-27 -40 -27 -61q0 -20 27 -20q16 0 42 7q22 4 40 4q95 0 95 -101q0 -12 -1 -24zM221 128q0 129 136 129q135 0 135 -129
q0 -128 -135 -128q-136 0 -136 128z" />
    <glyph glyph-name="u061F" unicode="&#x61f;" horiz-adv-x="888" 
d="M603 734q187 0 195 -213v-22q0 -191 -128 -193q-4 -1 -7 -1q-109 0 -109 63q0 10 4 23q3 13 3 25q0 54 -83 54h-23q-11 -1 -21 -1q-114 0 -211 97q-98 96 -98 387q0 28 1 57q10 339 313 339q302 0 360 -96q39 -65 39 -146q0 -38 -9 -79q-27 -128 -146 -128h-3
q-116 2 -116 81q0 5 1 10v15q0 74 -71 74q-79 0 -79 -173t188 -173zM531 128q0 129 136 129q135 0 135 -129q0 -128 -135 -128q-136 0 -136 128z" />
    <glyph glyph-name="u0640" unicode="&#x640;" horiz-adv-x="365" 
d="M385 0h-407v269h407v-269z" />
    <glyph glyph-name="u064B" unicode="&#x64b;" 
d="M485 1735l-385 -120q-6 -2 -15 -2q-44 0 -44 47q0 36 42 49l371 118q9 3 21 3q50 0 50 -48q0 -35 -40 -47zM494 1533l-384 -120q-6 -2 -15 -2q-44 0 -44 47q0 36 41 49l371 118q9 3 21 3q51 0 51 -48q0 -34 -41 -47z" />
    <glyph glyph-name="u064C" unicode="&#x64c;" 
d="M536 1762q0 -106 -101 -183q36 -25 36 -53q0 -34 -40 -34q-31 0 -67 28q-220 -116 -308 -116q-52 0 -52 43q0 34 41 45q68 18 68 79q0 28 -39 28q-28 0 -53 -15q-15 -9 -26 -9q-24 0 -24 25q0 20 19 39q41 41 103 41q92 0 92 -84q0 -30 -17 -66q58 22 117 59
q-44 46 -44 103q0 70 51.5 126.5t120.5 56.5q49 0 86 -32.5t37 -80.5zM448 1728q0 57 -55 57q-27 0 -49 -26.5t-22 -53.5q0 -45 47 -70q27 8 53 37t26 56z" />
    <glyph glyph-name="u064D" unicode="&#x64d;" 
d="M483 -711l-385 -120q-6 -2 -15 -2q-44 0 -44 47q0 36 42 49l371 118q9 3 21 3q50 0 50 -48q0 -35 -40 -47zM492 -904l-384 -119q-6 -2 -15 -2q-44 0 -44 46q0 36 41 49l372 119q9 3 20 3q51 0 51 -48q0 -35 -41 -48z" />
    <glyph glyph-name="u064E" unicode="&#x64e;" 
d="M494 1533l-384 -120q-6 -2 -15 -2q-44 0 -44 47q0 36 41 49l371 118q9 3 21 3q51 0 51 -48q0 -34 -41 -47z" />
    <glyph glyph-name="u064F" unicode="&#x64f;" 
d="M536 1762q0 -106 -101 -183q36 -25 36 -53q0 -34 -40 -34q-31 0 -67 28q-220 -116 -308 -116q-52 0 -52 43q0 34 41 45q148 39 240 97q-44 46 -44 103q0 70 51.5 126.5t120.5 56.5q49 0 86 -32.5t37 -80.5zM448 1728q0 57 -55 57q-27 0 -49 -26.5t-22 -53.5q0 -45 47 -70
q27 8 53 37t26 56z" />
    <glyph glyph-name="u0650" unicode="&#x650;" 
d="M494 -723l-384 -120q-6 -2 -15 -2q-44 0 -44 47q0 36 41 49l371 118q9 3 21 3q51 0 51 -48q0 -34 -41 -47z" />
    <glyph glyph-name="u0651" unicode="&#x651;" 
d="M515 1776q7 -35 7 -66q0 -78 -32 -130q-38 -63 -111 -63q-70 0 -94 68q-38 -105 -139 -105q-96 0 -96 126q0 55 23 104q13 27 35 27q32 0 27 -46q-11 -88 40 -88q73 0 91 129q6 43 36 43q28 0 29 -40q4 -100 63 -100q68 0 50 127q-1 7 -1 15q0 45 32 45q31 0 40 -46z" />
    <glyph glyph-name="u0652" unicode="&#x652;" 
d="M475 1685q0 -77 -52 -131t-128 -54q-72 0 -114 45.5t-42 117.5q0 94 59 149q48 46 105 46q76 0 124 -48.5t48 -124.5zM399 1667q0 41 -33 66.5t-75 25.5q-30 0 -52.5 -27.5t-22.5 -58.5q0 -73 93 -73q32 0 59 18q31 19 31 49z" />
    <glyph glyph-name="uE820" unicode="&#xe820;" 
d="M502 1213l-384 -120q-6 -2 -15 -2q-44 0 -44 47q0 36 41 49l371 118q10 3 21 3q51 0 51 -48q0 -34 -41 -47z" />
    <glyph glyph-name="uE821" unicode="&#xe821;" 
d="M553 1460q0 -106 -101 -183q36 -25 36 -53q0 -34 -40 -34q-31 0 -67 28q-220 -116 -308 -116q-52 0 -52 43q0 34 41 45q148 39 240 97q-44 46 -44 103q0 70 51.5 126.5t120.5 56.5q49 0 86 -32t37 -81zM465 1426q0 57 -55 57q-27 0 -49 -26.5t-22 -53.5q0 -45 47 -70
q27 8 53 37t26 56z" />
    <glyph glyph-name="uE822" unicode="&#xe822;" 
d="M465 1139q0 -76 -52 -130t-128 -54q-72 0 -114 45t-42 117q0 94 59 150q48 45 105 45q77 0 124.5 -48t47.5 -125zM389 1121q0 41 -34 68q-32 24 -73 24q-31 0 -53 -27t-22 -58q0 -73 92 -73q32 0 59 17q31 20 31 49z" />
    <glyph glyph-name="uE823" unicode="&#xe823;" 
d="M487 1232l-385 -120q-7 -2 -15 -2q-44 0 -44 47q0 36 42 49l371 118q9 3 21 3q50 0 50 -48q0 -34 -40 -47zM496 1030l-384 -120q-7 -2 -15 -2q-44 0 -44 47q0 36 41 49l371 118q9 3 21 3q51 0 51 -48q0 -34 -41 -47z" />
    <glyph glyph-name="uE824" unicode="&#xe824;" 
d="M537 1216q0 -106 -101 -183q36 -25 36 -53q0 -34 -40 -34q-31 0 -67 28q-220 -116 -308 -116q-52 0 -52 43q0 34 41 45q68 18 68 79q0 28 -39 28q-28 0 -53 -15q-15 -9 -26 -9q-24 0 -24 25q0 20 19 39q41 41 103 41q92 0 92 -84q0 -30 -17 -66q58 22 117 59
q-44 46 -44 103q0 69 51.5 126t120.5 57q49 0 86 -32.5t37 -80.5zM449 1182q0 57 -55 57q-27 0 -49 -26.5t-22 -53.5q0 -45 47 -70q27 8 53 37t26 56z" />
    <glyph glyph-name="uE825" unicode="&#xe825;" 
d="M510 1303q7 -35 7 -66q0 -77 -31 -130q-39 -63 -112 -63q-70 0 -94 68q-38 -105 -139 -105q-96 0 -96 126q0 56 23 104q13 27 35 27q33 0 27 -46q-10 -88 40 -88q73 0 91 129q6 43 36 43q28 0 29 -40q4 -100 63 -100q68 0 50 127q-1 8 -1 15q0 45 32 45q31 0 40 -46z" />
    <glyph glyph-name="uE826" unicode="&#xe826;" 
d="M403 -455l-384 -120q-6 -2 -15 -2q-44 0 -44 47q0 35 41 49l371 118q10 3 21 3q51 0 51 -48q0 -35 -41 -47z" />
    <glyph glyph-name="uE827" unicode="&#xe827;" 
d="M380 -460l-385 -120q-7 -2 -15 -2q-44 0 -44 47q0 36 42 49l371 118q9 3 21 3q50 0 50 -48q0 -34 -40 -47zM389 -653l-384 -119q-7 -2 -15 -2q-44 0 -44 46q0 36 41 49l372 119q9 3 20 3q51 0 51 -48q0 -35 -41 -48z" />
    </font>
</defs>
</svg>
